<?xml version="1.0" encoding="UTF-8" standalone="no"?>
<svg
   xmlns:dc="http://purl.org/dc/elements/1.1/"
   xmlns:cc="http://creativecommons.org/ns#"
   xmlns:rdf="http://www.w3.org/1999/02/22-rdf-syntax-ns#"
   xmlns:svg="http://www.w3.org/2000/svg"
   xmlns="http://www.w3.org/2000/svg"
   xmlns:sodipodi="http://sodipodi.sourceforge.net/DTD/sodipodi-0.dtd"
   xmlns:inkscape="http://www.inkscape.org/namespaces/inkscape"
   height="300mm"
   viewBox="0 0 599.99998 300.00001"
   width="600mm"
   id="svg2"
   version="1.1"
   inkscape:version="0.91 r13725"
   sodipodi:docname="Zynthia_6mm_A.svg">
  <defs
     id="defs145" />
  <sodipodi:namedview
     pagecolor="#ffffff"
     bordercolor="#666666"
     borderopacity="1"
     objecttolerance="10"
     gridtolerance="10"
     guidetolerance="10"
     inkscape:pageopacity="0"
     inkscape:pageshadow="2"
     inkscape:window-width="923"
     inkscape:window-height="680"
     id="namedview143"
     showgrid="false"
     inkscape:zoom="0.17986618"
     inkscape:cx="618.30044"
     inkscape:cy="930.33903"
     inkscape:window-x="140"
     inkscape:window-y="53"
     inkscape:window-maximized="0"
     inkscape:current-layer="svg2" />
  <!--
UniversalBox - Box with various options for different styles and lids

Created with Boxes.py (https://festi.info/boxes.py)
Creation date: 2020-06-22 09:57:42
Command line (remove spaces between dashes): boxes UniversalBox - -FingerJoint_angle=90.0 - -FingerJoint_style=rectangular - -FingerJoint_surroundingspaces=2.0 - -FingerJoint_edge_width=1.0 - -FingerJoint_finger=2.0 - -FingerJoint_play=0.0 - -FingerJoint_space=2.0 - -FingerJoint_width=1.0 - -Stackable_angle=60 - -Stackable_height=2.0 - -Stackable_holedistance=1.0 - -Stackable_width=4.0 - -Hinge_grip_percentage=0 - -Hinge_outset=0 - -Hinge_outset=1 - -Hinge_pinwidth=0.5 - -Hinge_style=outset - -Hinge_axle=2 - -Hinge_grip_length=0 - -Hinge_hingestrength=1 - -CabinetHinge_bore=3.2 - -CabinetHinge_eyes_per_hinge=5 - -CabinetHinge_hinges=2 - -CabinetHinge_style=inside - -CabinetHinge_eye=1.5 - -CabinetHinge_play=0.05 - -CabinetHinge_spacing=2.0 - -Lid_angle=90.0 - -Lid_second_pin=0 - -Lid_second_pin=1 - -Lid_spring=both - -Lid_style=rectangular - -Lid_surroundingspaces=2.0 - -Lid_edge_width=1.0 - -Lid_finger=3.0 - -Lid_play=0.05 - -Lid_space=2.0 - -Lid_width=1.0 - -Click_angle=5 - -Click_bottom_radius=0.1 - -Click_depth=3.0 - -RoundedTriangleEdge_height=150.0 - -RoundedTriangleEdge_r_hole=2.0 - -RoundedTriangleEdge_radius=30.0 - -RoundedTriangleEdge_outset=1 - -Flex_stretch=1.05 - -Flex_connection=1.0 - -Flex_distance=0.5 - -Flex_width=5.0 - -top_edge=e - -bottom_edge=h - -x=252 - -y=502 - -h=88.0 - -outside=0 '- -lid=default (none)' - -thickness=6 - -format=svg - -tabs=0.0 - -debug=0 - -reference=0 - -burn=0.1
Url: http://localhost:8008/UniversalBox?FingerJoint_angle=90.0&FingerJoint_style=rectangular&FingerJoint_surroundingspaces=2.0&FingerJoint_edge_width=1.0&FingerJoint_finger=2.0&FingerJoint_play=0.0&FingerJoint_space=2.0&FingerJoint_width=1.0&Stackable_angle=60&Stackable_height=2.0&Stackable_holedistance=1.0&Stackable_width=4.0&Hinge_grip_percentage=0&Hinge_outset=0&Hinge_outset=1&Hinge_pinwidth=0.5&Hinge_style=outset&Hinge_axle=2&Hinge_grip_length=0&Hinge_hingestrength=1&CabinetHinge_bore=3.2&CabinetHinge_eyes_per_hinge=5&CabinetHinge_hinges=2&CabinetHinge_style=inside&CabinetHinge_eye=1.5&CabinetHinge_play=0.05&CabinetHinge_spacing=2.0&Lid_angle=90.0&Lid_second_pin=0&Lid_second_pin=1&Lid_spring=both&Lid_style=rectangular&Lid_surroundingspaces=2.0&Lid_edge_width=1.0&Lid_finger=3.0&Lid_play=0.05&Lid_space=2.0&Lid_width=1.0&Click_angle=5&Click_bottom_radius=0.1&Click_depth=3.0&RoundedTriangleEdge_height=150.0&RoundedTriangleEdge_r_hole=2.0&RoundedTriangleEdge_radius=30.0&RoundedTriangleEdge_outset=1&Flex_stretch=1.05&Flex_connection=1.0&Flex_distance=0.5&Flex_width=5.0&top_edge=e&bottom_edge=h&x=252&y=502&h=88.0&outside=0&lid=default+%28none%29&thickness=6&format=svg&tabs=0.0&debug=0&reference=0&burn=0.1&render=1
SettingsUrl: http://localhost:8008/UniversalBox?FingerJoint_angle=90.0&FingerJoint_style=rectangular&FingerJoint_surroundingspaces=2.0&FingerJoint_edge_width=1.0&FingerJoint_finger=2.0&FingerJoint_play=0.0&FingerJoint_space=2.0&FingerJoint_width=1.0&Stackable_angle=60&Stackable_height=2.0&Stackable_holedistance=1.0&Stackable_width=4.0&Hinge_grip_percentage=0&Hinge_outset=0&Hinge_outset=1&Hinge_pinwidth=0.5&Hinge_style=outset&Hinge_axle=2&Hinge_grip_length=0&Hinge_hingestrength=1&CabinetHinge_bore=3.2&CabinetHinge_eyes_per_hinge=5&CabinetHinge_hinges=2&CabinetHinge_style=inside&CabinetHinge_eye=1.5&CabinetHinge_play=0.05&CabinetHinge_spacing=2.0&Lid_angle=90.0&Lid_second_pin=0&Lid_second_pin=1&Lid_spring=both&Lid_style=rectangular&Lid_surroundingspaces=2.0&Lid_edge_width=1.0&Lid_finger=3.0&Lid_play=0.05&Lid_space=2.0&Lid_width=1.0&Click_angle=5&Click_bottom_radius=0.1&Click_depth=3.0&RoundedTriangleEdge_height=150.0&RoundedTriangleEdge_r_hole=2.0&RoundedTriangleEdge_radius=30.0&RoundedTriangleEdge_outset=1&Flex_stretch=1.05&Flex_connection=1.0&Flex_distance=0.5&Flex_width=5.0&top_edge=e&bottom_edge=h&x=252&y=502&h=88.0&outside=0&lid=default+%28none%29&thickness=6&format=svg&tabs=0.0&debug=0&reference=0&burn=0.1
-->
  <title
     id="title4">UniversalBox</title>
  <metadata
     id="metadata6">
    <rdf:RDF>
      <cc:Work>
        <dc:title>UniversalBox</dc:title>
        <dc:date>2020-06-22 09:57:42</dc:date>
        <dc:source>http://localhost:8008/UniversalBox?FingerJoint_angle=90.0&amp;FingerJoint_style=rectangular&amp;FingerJoint_surroundingspaces=2.0&amp;FingerJoint_edge_width=1.0&amp;FingerJoint_finger=2.0&amp;FingerJoint_play=0.0&amp;FingerJoint_space=2.0&amp;FingerJoint_width=1.0&amp;Stackable_angle=60&amp;Stackable_height=2.0&amp;Stackable_holedistance=1.0&amp;Stackable_width=4.0&amp;Hinge_grip_percentage=0&amp;Hinge_outset=0&amp;Hinge_outset=1&amp;Hinge_pinwidth=0.5&amp;Hinge_style=outset&amp;Hinge_axle=2&amp;Hinge_grip_length=0&amp;Hinge_hingestrength=1&amp;CabinetHinge_bore=3.2&amp;CabinetHinge_eyes_per_hinge=5&amp;CabinetHinge_hinges=2&amp;CabinetHinge_style=inside&amp;CabinetHinge_eye=1.5&amp;CabinetHinge_play=0.05&amp;CabinetHinge_spacing=2.0&amp;Lid_angle=90.0&amp;Lid_second_pin=0&amp;Lid_second_pin=1&amp;Lid_spring=both&amp;Lid_style=rectangular&amp;Lid_surroundingspaces=2.0&amp;Lid_edge_width=1.0&amp;Lid_finger=3.0&amp;Lid_play=0.05&amp;Lid_space=2.0&amp;Lid_width=1.0&amp;Click_angle=5&amp;Click_bottom_radius=0.1&amp;Click_depth=3.0&amp;RoundedTriangleEdge_height=150.0&amp;RoundedTriangleEdge_r_hole=2.0&amp;RoundedTriangleEdge_radius=30.0&amp;RoundedTriangleEdge_outset=1&amp;Flex_stretch=1.05&amp;Flex_connection=1.0&amp;Flex_distance=0.5&amp;Flex_width=5.0&amp;top_edge=e&amp;bottom_edge=h&amp;x=252&amp;y=502&amp;h=88.0&amp;outside=0&amp;lid=default+%28none%29&amp;thickness=6&amp;format=svg&amp;tabs=0.0&amp;debug=0&amp;reference=0&amp;burn=0.1&amp;render=1</dc:source>
        <dc:description>Box with various options for different styles and lids

Created with Boxes.py (https://festi.info/boxes.py)
Command line: boxes UniversalBox --FingerJoint_angle=90.0 --FingerJoint_style=rectangular --FingerJoint_surroundingspaces=2.0 --FingerJoint_edge_width=1.0 --FingerJoint_finger=2.0 --FingerJoint_play=0.0 --FingerJoint_space=2.0 --FingerJoint_width=1.0 --Stackable_angle=60 --Stackable_height=2.0 --Stackable_holedistance=1.0 --Stackable_width=4.0 --Hinge_grip_percentage=0 --Hinge_outset=0 --Hinge_outset=1 --Hinge_pinwidth=0.5 --Hinge_style=outset --Hinge_axle=2 --Hinge_grip_length=0 --Hinge_hingestrength=1 --CabinetHinge_bore=3.2 --CabinetHinge_eyes_per_hinge=5 --CabinetHinge_hinges=2 --CabinetHinge_style=inside --CabinetHinge_eye=1.5 --CabinetHinge_play=0.05 --CabinetHinge_spacing=2.0 --Lid_angle=90.0 --Lid_second_pin=0 --Lid_second_pin=1 --Lid_spring=both --Lid_style=rectangular --Lid_surroundingspaces=2.0 --Lid_edge_width=1.0 --Lid_finger=3.0 --Lid_play=0.05 --Lid_space=2.0 --Lid_width=1.0 --Click_angle=5 --Click_bottom_radius=0.1 --Click_depth=3.0 --RoundedTriangleEdge_height=150.0 --RoundedTriangleEdge_r_hole=2.0 --RoundedTriangleEdge_radius=30.0 --RoundedTriangleEdge_outset=1 --Flex_stretch=1.05 --Flex_connection=1.0 --Flex_distance=0.5 --Flex_width=5.0 --top_edge=e --bottom_edge=h --x=252 --y=502 --h=88.0 --outside=0 '--lid=default (none)' --thickness=6 --format=svg --tabs=0.0 --debug=0 --reference=0 --burn=0.1
Url: http://localhost:8008/UniversalBox?FingerJoint_angle=90.0&amp;FingerJoint_style=rectangular&amp;FingerJoint_surroundingspaces=2.0&amp;FingerJoint_edge_width=1.0&amp;FingerJoint_finger=2.0&amp;FingerJoint_play=0.0&amp;FingerJoint_space=2.0&amp;FingerJoint_width=1.0&amp;Stackable_angle=60&amp;Stackable_height=2.0&amp;Stackable_holedistance=1.0&amp;Stackable_width=4.0&amp;Hinge_grip_percentage=0&amp;Hinge_outset=0&amp;Hinge_outset=1&amp;Hinge_pinwidth=0.5&amp;Hinge_style=outset&amp;Hinge_axle=2&amp;Hinge_grip_length=0&amp;Hinge_hingestrength=1&amp;CabinetHinge_bore=3.2&amp;CabinetHinge_eyes_per_hinge=5&amp;CabinetHinge_hinges=2&amp;CabinetHinge_style=inside&amp;CabinetHinge_eye=1.5&amp;CabinetHinge_play=0.05&amp;CabinetHinge_spacing=2.0&amp;Lid_angle=90.0&amp;Lid_second_pin=0&amp;Lid_second_pin=1&amp;Lid_spring=both&amp;Lid_style=rectangular&amp;Lid_surroundingspaces=2.0&amp;Lid_edge_width=1.0&amp;Lid_finger=3.0&amp;Lid_play=0.05&amp;Lid_space=2.0&amp;Lid_width=1.0&amp;Click_angle=5&amp;Click_bottom_radius=0.1&amp;Click_depth=3.0&amp;RoundedTriangleEdge_height=150.0&amp;RoundedTriangleEdge_r_hole=2.0&amp;RoundedTriangleEdge_radius=30.0&amp;RoundedTriangleEdge_outset=1&amp;Flex_stretch=1.05&amp;Flex_connection=1.0&amp;Flex_distance=0.5&amp;Flex_width=5.0&amp;top_edge=e&amp;bottom_edge=h&amp;x=252&amp;y=502&amp;h=88.0&amp;outside=0&amp;lid=default+%28none%29&amp;thickness=6&amp;format=svg&amp;tabs=0.0&amp;debug=0&amp;reference=0&amp;burn=0.1&amp;render=1
SettingsUrl: http://localhost:8008/UniversalBox?FingerJoint_angle=90.0&amp;FingerJoint_style=rectangular&amp;FingerJoint_surroundingspaces=2.0&amp;FingerJoint_edge_width=1.0&amp;FingerJoint_finger=2.0&amp;FingerJoint_play=0.0&amp;FingerJoint_space=2.0&amp;FingerJoint_width=1.0&amp;Stackable_angle=60&amp;Stackable_height=2.0&amp;Stackable_holedistance=1.0&amp;Stackable_width=4.0&amp;Hinge_grip_percentage=0&amp;Hinge_outset=0&amp;Hinge_outset=1&amp;Hinge_pinwidth=0.5&amp;Hinge_style=outset&amp;Hinge_axle=2&amp;Hinge_grip_length=0&amp;Hinge_hingestrength=1&amp;CabinetHinge_bore=3.2&amp;CabinetHinge_eyes_per_hinge=5&amp;CabinetHinge_hinges=2&amp;CabinetHinge_style=inside&amp;CabinetHinge_eye=1.5&amp;CabinetHinge_play=0.05&amp;CabinetHinge_spacing=2.0&amp;Lid_angle=90.0&amp;Lid_second_pin=0&amp;Lid_second_pin=1&amp;Lid_spring=both&amp;Lid_style=rectangular&amp;Lid_surroundingspaces=2.0&amp;Lid_edge_width=1.0&amp;Lid_finger=3.0&amp;Lid_play=0.05&amp;Lid_space=2.0&amp;Lid_width=1.0&amp;Click_angle=5&amp;Click_bottom_radius=0.1&amp;Click_depth=3.0&amp;RoundedTriangleEdge_height=150.0&amp;RoundedTriangleEdge_r_hole=2.0&amp;RoundedTriangleEdge_radius=30.0&amp;RoundedTriangleEdge_outset=1&amp;Flex_stretch=1.05&amp;Flex_connection=1.0&amp;Flex_distance=0.5&amp;Flex_width=5.0&amp;top_edge=e&amp;bottom_edge=h&amp;x=252&amp;y=502&amp;h=88.0&amp;outside=0&amp;lid=default+%28none%29&amp;thickness=6&amp;format=svg&amp;tabs=0.0&amp;debug=0&amp;reference=0&amp;burn=0.1
</dc:description>
        <dc:format>image/svg+xml</dc:format>
        <dc:type
           rdf:resource="http://purl.org/dc/dcmitype/StillImage" />
      </cc:Work>
    </rdf:RDF>
  </metadata>
  <g
     id="g4583"
     transform="translate(-630.48299,-119.36703)">
    <g
       transform="translate(745.58302,-375.93298)"
       id="g4507">
      <g
         id="g4493"
         transform="translate(0,-2.8)">
        <g
           transform="translate(0,-20.000133)"
           id="g4419">
          <path
             style="fill:none;stroke:#0000ff;stroke-width:0.2;stroke-linecap:round;stroke-linejoin:round"
             inkscape:connector-curvature="0"
             id="path9"
             d="m 34.1,724.4 -5.9,0 c -0.1,0 0,0.1 0,0 l 0,-5.8 c 0,-0.1 -0.1,0 0,0 l 11.8,0 c 0.1,0 0,-0.1 0,0 l 0,5.8 c 0,0.1 0.1,0 0,0 l -5.9,0 z" />
          <path
             style="fill:none;stroke:#0000ff;stroke-width:0.2;stroke-linecap:round;stroke-linejoin:round"
             inkscape:connector-curvature="0"
             id="path11"
             d="m 58.1,724.4 -5.9,0 c -0.1,0 0,0.1 0,0 l 0,-5.8 c 0,-0.1 -0.1,0 0,0 l 11.8,0 c 0.1,0 0,-0.1 0,0 l 0,5.8 c 0,0.1 0.1,0 0,0 l -5.9,0 z" />
          <path
             style="fill:none;stroke:#0000ff;stroke-width:0.2;stroke-linecap:round;stroke-linejoin:round"
             inkscape:connector-curvature="0"
             id="path13"
             d="m 82.1,724.4 -5.9,0 c -0.1,0 0,0.1 0,0 l 0,-5.8 c 0,-0.1 -0.1,0 0,0 l 11.8,0 c 0.1,0 0,-0.1 0,0 l 0,5.8 c 0,0.1 0.1,0 0,0 l -5.9,0 z" />
          <path
             style="fill:none;stroke:#0000ff;stroke-width:0.2;stroke-linecap:round;stroke-linejoin:round"
             inkscape:connector-curvature="0"
             id="path15"
             d="m 106.1,724.4 -5.9,0 c -0.1,0 0,0.1 0,0 l 0,-5.8 c 0,-0.1 -0.1,0 0,0 l 11.8,0 c 0.1,0 0,-0.1 0,0 l 0,5.8 c 0,0.1 0.1,0 0,0 l -5.9,0 z" />
          <path
             style="fill:none;stroke:#0000ff;stroke-width:0.2;stroke-linecap:round;stroke-linejoin:round"
             inkscape:connector-curvature="0"
             id="path17"
             d="m 130.1,724.4 -5.9,0 c -0.1,0 0,0.1 0,0 l 0,-5.8 c 0,-0.1 -0.1,0 0,0 l 11.8,0 c 0.1,0 0,-0.1 0,0 l 0,5.8 c 0,0.1 0.1,0 0,0 l -5.9,0 z" />
          <path
             style="fill:none;stroke:#0000ff;stroke-width:0.2;stroke-linecap:round;stroke-linejoin:round"
             inkscape:connector-curvature="0"
             id="path19"
             d="m 154.1,724.4 -5.9,0 c -0.1,0 0,0.1 0,0 l 0,-5.8 c 0,-0.1 -0.1,0 0,0 l 11.8,0 c 0.1,0 0,-0.1 0,0 l 0,5.8 c 0,0.1 0.1,0 0,0 l -5.9,0 z" />
          <path
             style="fill:none;stroke:#0000ff;stroke-width:0.2;stroke-linecap:round;stroke-linejoin:round"
             inkscape:connector-curvature="0"
             id="path21"
             d="m 178.1,724.4 -5.9,0 c -0.1,0 0,0.1 0,0 l 0,-5.8 c 0,-0.1 -0.1,0 0,0 l 11.8,0 c 0.1,0 0,-0.1 0,0 l 0,5.8 c 0,0.1 0.1,0 0,0 l -5.9,0 z" />
          <path
             style="fill:none;stroke:#0000ff;stroke-width:0.2;stroke-linecap:round;stroke-linejoin:round"
             inkscape:connector-curvature="0"
             id="path23"
             d="m 202.1,724.4 -5.9,0 c -0.1,0 0,0.1 0,0 l 0,-5.8 c 0,-0.1 -0.1,0 0,0 l 11.8,0 c 0.1,0 0,-0.1 0,0 l 0,5.8 c 0,0.1 0.1,0 0,0 l -5.9,0 z" />
          <path
             style="fill:none;stroke:#0000ff;stroke-width:0.2;stroke-linecap:round;stroke-linejoin:round"
             inkscape:connector-curvature="0"
             id="path25"
             d="m 226.1,724.4 -5.9,0 c -0.1,0 0,0.1 0,0 l 0,-5.8 c 0,-0.1 -0.1,0 0,0 l 11.8,0 c 0.1,0 0,-0.1 0,0 l 0,5.8 c 0,0.1 0.1,0 0,0 l -5.9,0 z" />
          <path
             style="fill:none;stroke:#0000ff;stroke-width:0.2;stroke-linecap:round;stroke-linejoin:round"
             inkscape:connector-curvature="0"
             id="path27"
             d="m 250.1,724.4 -5.9,0 c -0.1,0 0,0.1 0,0 l 0,-5.8 c 0,-0.1 -0.1,0 0,0 l 11.8,0 c 0.1,0 0,-0.1 0,0 l 0,5.8 c 0,0.1 0.1,0 0,0 l -5.9,0 z" />
        </g>
        <path
           d="m 16.1,730.6 252,0 6,0 c 0.055,0 0.1,-0.045 0.1,-0.1 l 0,-20 c 0,-0.055 -0.045,-0.1 -0.1,-0.1 l -5.9,0 c -0.1,0 0,0.1 0,0 l 0,-11.8 c 0,-0.1 -0.1,0 0,0 l 5.9,0 c 0.055,0 0.1,-0.045 0.1,-0.1 l 0,-12 c 0,-0.055 -0.045,-0.1 -0.1,-0.1 l -5.9,0 c -0.1,0 0,0.1 0,0 l 0,-11.8 c 0,-0.1 -0.1,0 0,0 l 5.9,0 c 0.055,0 0.1,-0.045 0.1,-0.1 l 0,-12 c 0,-0.055 -0.045,-0.1 -0.1,-0.1 l -5.9,0 c -0.1,0 0,0.1 0,0 l 0,-11.8 c 0,-0.1 -0.1,0 0,0 l 5.9,0 c 0.055,0 0.1,-0.045 0.1,-0.1 l 0,-20 c 0,-0.055 -0.045,-0.1 -0.1,-0.1 l -6,0 -252,0 -6,0 c -0.055,0 -0.1,0.045 -0.1,0.1 l 0,20 c 0,0.055 0.045,0.1 0.1,0.1 l 5.9,0 c 0.1,0 0,-0.1 0,0 l 0,11.8 c 0,0.1 0.1,0 0,0 l -5.9,0 c -0.055,0 -0.1,0.045 -0.1,0.1 l 0,12 c 0,0.055 0.045,0.1 0.1,0.1 l 5.9,0 c 0.1,0 0,-0.1 0,0 l 0,11.8 c 0,0.1 0.1,0 0,0 l -5.9,0 c -0.055,0 -0.1,0.045 -0.1,0.1 l 0,12 c 0,0.055 0.045,0.1 0.1,0.1 l 5.9,0 c 0.1,0 0,-0.1 0,0 l 0,11.8 c 0,0.1 0.1,0 0,0 l -5.9,0 c -0.055,0 -0.1,0.045 -0.1,0.1 l 0,20 c 0,0.055 0.045,0.1 0.1,0.1 l 6,0 z"
           id="path29"
           inkscape:connector-curvature="0"
           style="fill:none;stroke:#000000;stroke-width:0.2;stroke-linecap:round;stroke-linejoin:round" />
      </g>
      <g
         id="g4431">
        <g
           transform="translate(0,-20.000133)"
           id="g4363">
          <path
             style="fill:none;stroke:#0000ff;stroke-width:0.2;stroke-linecap:round;stroke-linejoin:round"
             inkscape:connector-curvature="0"
             id="path32"
             d="m 34.1,621.2 -5.9,0 c -0.1,0 0,0.1 0,0 l 0,-5.8 c 0,-0.1 -0.1,0 0,0 l 11.8,0 c 0.1,0 0,-0.1 0,0 l 0,5.8 c 0,0.1 0.1,0 0,0 l -5.9,0 z" />
          <path
             style="fill:none;stroke:#0000ff;stroke-width:0.2;stroke-linecap:round;stroke-linejoin:round"
             inkscape:connector-curvature="0"
             id="path34"
             d="m 58.1,621.2 -5.9,0 c -0.1,0 0,0.1 0,0 l 0,-5.8 c 0,-0.1 -0.1,0 0,0 l 11.8,0 c 0.1,0 0,-0.1 0,0 l 0,5.8 c 0,0.1 0.1,0 0,0 l -5.9,0 z" />
          <path
             style="fill:none;stroke:#0000ff;stroke-width:0.2;stroke-linecap:round;stroke-linejoin:round"
             inkscape:connector-curvature="0"
             id="path36"
             d="m 82.1,621.2 -5.9,0 c -0.1,0 0,0.1 0,0 l 0,-5.8 c 0,-0.1 -0.1,0 0,0 l 11.8,0 c 0.1,0 0,-0.1 0,0 l 0,5.8 c 0,0.1 0.1,0 0,0 l -5.9,0 z" />
          <path
             style="fill:none;stroke:#0000ff;stroke-width:0.2;stroke-linecap:round;stroke-linejoin:round"
             inkscape:connector-curvature="0"
             id="path38"
             d="m 106.1,621.2 -5.9,0 c -0.1,0 0,0.1 0,0 l 0,-5.8 c 0,-0.1 -0.1,0 0,0 l 11.8,0 c 0.1,0 0,-0.1 0,0 l 0,5.8 c 0,0.1 0.1,0 0,0 l -5.9,0 z" />
          <path
             style="fill:none;stroke:#0000ff;stroke-width:0.2;stroke-linecap:round;stroke-linejoin:round"
             inkscape:connector-curvature="0"
             id="path40"
             d="m 130.1,621.2 -5.9,0 c -0.1,0 0,0.1 0,0 l 0,-5.8 c 0,-0.1 -0.1,0 0,0 l 11.8,0 c 0.1,0 0,-0.1 0,0 l 0,5.8 c 0,0.1 0.1,0 0,0 l -5.9,0 z" />
          <path
             style="fill:none;stroke:#0000ff;stroke-width:0.2;stroke-linecap:round;stroke-linejoin:round"
             inkscape:connector-curvature="0"
             id="path42"
             d="m 154.1,621.2 -5.9,0 c -0.1,0 0,0.1 0,0 l 0,-5.8 c 0,-0.1 -0.1,0 0,0 l 11.8,0 c 0.1,0 0,-0.1 0,0 l 0,5.8 c 0,0.1 0.1,0 0,0 l -5.9,0 z" />
          <path
             style="fill:none;stroke:#0000ff;stroke-width:0.2;stroke-linecap:round;stroke-linejoin:round"
             inkscape:connector-curvature="0"
             id="path44"
             d="m 178.1,621.2 -5.9,0 c -0.1,0 0,0.1 0,0 l 0,-5.8 c 0,-0.1 -0.1,0 0,0 l 11.8,0 c 0.1,0 0,-0.1 0,0 l 0,5.8 c 0,0.1 0.1,0 0,0 l -5.9,0 z" />
          <path
             style="fill:none;stroke:#0000ff;stroke-width:0.2;stroke-linecap:round;stroke-linejoin:round"
             inkscape:connector-curvature="0"
             id="path46"
             d="m 202.1,621.2 -5.9,0 c -0.1,0 0,0.1 0,0 l 0,-5.8 c 0,-0.1 -0.1,0 0,0 l 11.8,0 c 0.1,0 0,-0.1 0,0 l 0,5.8 c 0,0.1 0.1,0 0,0 l -5.9,0 z" />
          <path
             style="fill:none;stroke:#0000ff;stroke-width:0.2;stroke-linecap:round;stroke-linejoin:round"
             inkscape:connector-curvature="0"
             id="path48"
             d="m 226.1,621.2 -5.9,0 c -0.1,0 0,0.1 0,0 l 0,-5.8 c 0,-0.1 -0.1,0 0,0 l 11.8,0 c 0.1,0 0,-0.1 0,0 l 0,5.8 c 0,0.1 0.1,0 0,0 l -5.9,0 z" />
          <path
             style="fill:none;stroke:#0000ff;stroke-width:0.2;stroke-linecap:round;stroke-linejoin:round"
             inkscape:connector-curvature="0"
             id="path50"
             d="m 250.1,621.2 -5.9,0 c -0.1,0 0,0.1 0,0 l 0,-5.8 c 0,-0.1 -0.1,0 0,0 l 11.8,0 c 0.1,0 0,-0.1 0,0 l 0,5.8 c 0,0.1 0.1,0 0,0 l -5.9,0 z" />
        </g>
        <path
           d="m 268.1,627.4 6,0 c 0.055,0 0.1,-0.045 0.1,-0.1 l 0,-20 c 0,-0.055 -0.045,-0.1 -0.1,-0.1 l -5.9,0 c -0.1,0 0,0.1 0,0 l 0,-11.8 c 0,-0.1 -0.1,0 0,0 l 5.9,0 c 0.055,0 0.1,-0.045 0.1,-0.1 l 0,-12 c 0,-0.055 -0.045,-0.1 -0.1,-0.1 l -5.9,0 c -0.1,0 0,0.1 0,0 l 0,-11.8 c 0,-0.1 -0.1,0 0,0 l 5.9,0 c 0.055,0 0.1,-0.045 0.1,-0.1 l 0,-12 c 0,-0.055 -0.045,-0.1 -0.1,-0.1 l -5.9,0 c -0.1,0 0,0.1 0,0 l 0,-11.8 c 0,-0.1 -0.1,0 0,0 l 5.9,0 c 0.055,0 0.1,-0.045 0.1,-0.1 l 0,-20 c 0,-0.055 -0.045,-0.1 -0.1,-0.1 l -6,0 -252,0 -6,0 c -0.055,0 -0.1,0.045 -0.1,0.1 l 0,20 c 0,0.055 0.045,0.1 0.1,0.1 l 5.9,0 c 0.1,0 0,-0.1 0,0 l 0,11.8 c 0,0.1 0.1,0 0,0 l -5.9,0 c -0.055,0 -0.1,0.045 -0.1,0.1 l 0,12 c 0,0.055 0.045,0.1 0.1,0.1 l 5.9,0 c 0.1,0 0,-0.1 0,0 l 0,11.8 c 0,0.1 0.1,0 0,0 l -5.9,0 c -0.055,0 -0.1,0.045 -0.1,0.1 l 0,12 c 0,0.055 0.045,0.1 0.1,0.1 l 5.9,0 c 0.1,0 0,-0.1 0,0 l 0,11.8 c 0,0.1 0.1,0 0,0 l -5.9,0 c -0.055,0 -0.1,0.045 -0.1,0.1 l 0,20 c 0,0.055 0.045,0.1 0.1,0.1 l 6,0"
           id="path52"
           inkscape:connector-curvature="0"
           style="fill:none;stroke:#000000;stroke-width:0.2;stroke-linecap:round;stroke-linejoin:round"
           sodipodi:nodetypes="cssssssssssssssssssssssssssssccssssssssssssssssssssssssssssc" />
      </g>
    </g>
    <g
       transform="matrix(0,-0.99999993,1.0000001,0,620.58299,393.66701)"
       style="fill:none;stroke-linecap:round;stroke-linejoin:round"
       id="p-2">
      <path
         style="stroke:#000000;stroke-width:0.2"
         inkscape:connector-curvature="0"
         id="path55"
         d="m 16.1,518.2 11.9,0 c 0.1,0 0,-0.1 0,0 l 0,5.9 c 0,0.055 0.045,0.1 0.1,0.1 l 12,0 c 0.055,0 0.1,-0.045 0.1,-0.1 l 0,-5.9 c 0,-0.1 -0.1,0 0,0 l 11.8,0 c 0.1,0 0,-0.1 0,0 l 0,5.9 c 0,0.055 0.045,0.1 0.1,0.1 l 12,0 c 0.055,0 0.1,-0.045 0.1,-0.1 l 0,-5.9 c 0,-0.1 -0.1,0 0,0 l 11.8,0 c 0.1,0 0,-0.1 0,0 l 0,5.9 c 0,0.055 0.045,0.1 0.1,0.1 l 12,0 c 0.055,0 0.1,-0.045 0.1,-0.1 l 0,-5.9 c 0,-0.1 -0.1,0 0,0 l 11.8,0 c 0.1,0 0,-0.1 0,0 l 0,5.9 c 0,0.055 0.045,0.1 0.1,0.1 l 12,0 c 0.055,0 0.1,-0.045 0.1,-0.1 l 0,-5.9 c 0,-0.1 -0.1,0 0,0 l 11.8,0 c 0.1,0 0,-0.1 0,0 l 0,5.9 c 0,0.055 0.045,0.1 0.1,0.1 l 12,0 c 0.055,0 0.1,-0.045 0.1,-0.1 l 0,-5.9 c 0,-0.1 -0.1,0 0,0 l 11.8,0 c 0.1,0 0,-0.1 0,0 l 0,5.9 c 0,0.055 0.045,0.1 0.1,0.1 l 12,0 c 0.055,0 0.1,-0.045 0.1,-0.1 l 0,-5.9 c 0,-0.1 -0.1,0 0,0 l 11.8,0 c 0.1,0 0,-0.1 0,0 l 0,5.9 c 0,0.055 0.045,0.1 0.1,0.1 l 12,0 c 0.055,0 0.1,-0.045 0.1,-0.1 l 0,-5.9 c 0,-0.1 -0.1,0 0,0 l 11.8,0 c 0.1,0 0,-0.1 0,0 l 0,5.9 c 0,0.055 0.045,0.1 0.1,0.1 l 12,0 c 0.055,0 0.1,-0.045 0.1,-0.1 l 0,-5.9 c 0,-0.1 -0.1,0 0,0 l 11.8,0 c 0.1,0 0,-0.1 0,0 l 0,5.9 c 0,0.055 0.045,0.1 0.1,0.1 l 12,0 c 0.055,0 0.1,-0.045 0.1,-0.1 l 0,-5.9 c 0,-0.1 -0.1,0 0,0 l 11.8,0 c 0.1,0 0,-0.1 0,0 l 0,5.9 c 0,0.055 0.045,0.1 0.1,0.1 l 12,0 c 0.055,0 0.1,-0.045 0.1,-0.1 l 0,-5.9 c 0,-0.1 -0.1,0 0,0 l 11.9,0 c 0.055,0 0.1,-0.045 0.1,-0.1 l 0,-16.9 c 0,-0.1 -0.1,0 0,0 l 5.9,0 c 0.055,0 0.1,-0.045 0.1,-0.1 l 0,-12 c 0,-0.055 -0.045,-0.1 -0.1,-0.1 l -5.9,0 c -0.1,0 0,0.1 0,0 l 0,-11.8 c 0,-0.1 -0.1,0 0,0 l 5.9,0 c 0.055,0 0.1,-0.045 0.1,-0.1 l 0,-12 c 0,-0.055 -0.045,-0.1 -0.1,-0.1 l -5.9,0 c -0.1,0 0,0.1 0,0 l 0,-11.8 c 0,-0.1 -0.1,0 0,0 l 5.9,0 c 0.055,0 0.1,-0.045 0.1,-0.1 l 0,-12 c 0,-0.055 -0.045,-0.1 -0.1,-0.1 l -5.9,0 c -0.1,0 0,0.1 0,0 l 0,-11.8 c 0,-0.1 -0.1,0 0,0 l 5.9,0 c 0.055,0 0.1,-0.045 0.1,-0.1 l 0,-12 c 0,-0.055 -0.045,-0.1 -0.1,-0.1 l -5.9,0 c -0.1,0 0,0.1 0,0 l 0,-11.8 c 0,-0.1 -0.1,0 0,0 l 5.9,0 c 0.055,0 0.1,-0.045 0.1,-0.1 l 0,-12 c 0,-0.055 -0.045,-0.1 -0.1,-0.1 l -5.9,0 c -0.1,0 0,0.1 0,0 l 0,-11.8 c 0,-0.1 -0.1,0 0,0 l 5.9,0 c 0.055,0 0.1,-0.045 0.1,-0.1 l 0,-12 c 0,-0.055 -0.045,-0.1 -0.1,-0.1 l -5.9,0 c -0.1,0 0,0.1 0,0 l 0,-11.8 c 0,-0.1 -0.1,0 0,0 l 5.9,0 c 0.055,0 0.1,-0.045 0.1,-0.1 l 0,-12 c 0,-0.055 -0.045,-0.1 -0.1,-0.1 l -5.9,0 c -0.1,0 0,0.1 0,0 l 0,-11.8 c 0,-0.1 -0.1,0 0,0 l 5.9,0 c 0.055,0 0.1,-0.045 0.1,-0.1 l 0,-12 c 0,-0.055 -0.045,-0.1 -0.1,-0.1 l -5.9,0 c -0.1,0 0,0.1 0,0 l 0,-11.8 c 0,-0.1 -0.1,0 0,0 l 5.9,0 c 0.055,0 0.1,-0.045 0.1,-0.1 l 0,-12 c 0,-0.055 -0.045,-0.1 -0.1,-0.1 l -5.9,0 c -0.1,0 0,0.1 0,0 l 0,-11.8 c 0,-0.1 -0.1,0 0,0 l 5.9,0 c 0.055,0 0.1,-0.045 0.1,-0.1 l 0,-12 c 0,-0.055 -0.045,-0.1 -0.1,-0.1 l -5.9,0 c -0.1,0 0,0.1 0,0 l 0,-11.8 c 0,-0.1 -0.1,0 0,0 l 5.9,0 c 0.055,0 0.1,-0.045 0.1,-0.1 l 0,-12 c 0,-0.055 -0.045,-0.1 -0.1,-0.1 l -5.9,0 c -0.1,0 0,0.1 0,0 l 0,-11.8 c 0,-0.1 -0.1,0 0,0 l 5.9,0 c 0.055,0 0.1,-0.045 0.1,-0.1 l 0,-12 c 0,-0.055 -0.045,-0.1 -0.1,-0.1 l -5.9,0 c -0.1,0 0,0.1 0,0 l 0,-11.8 c 0,-0.1 -0.1,0 0,0 l 5.9,0 c 0.055,0 0.1,-0.045 0.1,-0.1 l 0,-12 c 0,-0.055 -0.045,-0.1 -0.1,-0.1 l -5.9,0 c -0.1,0 0,0.1 0,0 l 0,-11.8 c 0,-0.1 -0.1,0 0,0 l 5.9,0 c 0.055,0 0.1,-0.045 0.1,-0.1 l 0,-12 c 0,-0.055 -0.045,-0.1 -0.1,-0.1 l -5.9,0 c -0.1,0 0,0.1 0,0 l 0,-11.8 c 0,-0.1 -0.1,0 0,0 l 5.9,0 c 0.055,0 0.1,-0.045 0.1,-0.1 l 0,-12 c 0,-0.055 -0.045,-0.1 -0.1,-0.1 l -5.9,0 c -0.1,0 0,0.1 0,0 l 0,-11.8 c 0,-0.1 -0.1,0 0,0 l 5.9,0 c 0.055,0 0.1,-0.045 0.1,-0.1 l 0,-12 c 0,-0.055 -0.045,-0.1 -0.1,-0.1 l -5.9,0 c -0.1,0 0,0.1 0,0 l 0,-11.8 c 0,-0.1 -0.1,0 0,0 l 5.9,0 c 0.055,0 0.1,-0.045 0.1,-0.1 l 0,-12 c 0,-0.055 -0.045,-0.1 -0.1,-0.1 l -5.9,0 c -0.1,0 0,0.1 0,0 l 0,-11.8 c 0,-0.1 -0.1,0 0,0 l 5.9,0 c 0.055,0 0.1,-0.045 0.1,-0.1 l 0,-12 c 0,-0.055 -0.045,-0.1 -0.1,-0.1 l -5.9,0 c -0.1,0 0,0.1 0,0 l 0,-11.8 c 0,-0.1 -0.1,0 0,0 l 5.9,0 c 0.055,0 0.1,-0.045 0.1,-0.1 l 0,-12 c 0,-0.055 -0.045,-0.1 -0.1,-0.1 l -5.9,0 c -0.1,0 0,0.1 0,0 l 0,-11.8 c 0,-0.1 -0.1,0 0,0 l 5.9,0 c 0.055,0 0.1,-0.045 0.1,-0.1 l 0,-12 c 0,-0.055 -0.045,-0.1 -0.1,-0.1 l -5.9,0 c -0.1,0 0,0.1 0,0 l 0,-16.9 c 0,-0.055 -0.045,-0.1 -0.1,-0.1 l -11.9,0 c -0.1,0 0,0.1 0,0 l 0,-5.9 c 0,-0.055 -0.045,-0.1 -0.1,-0.1 l -12,0 c -0.055,0 -0.1,0.045 -0.1,0.1 l 0,5.9 c 0,0.1 0.1,0 0,0 l -11.8,0 c -0.1,0 0,0.1 0,0 l 0,-5.9 c 0,-0.055 -0.045,-0.1 -0.1,-0.1 l -12,0 c -0.055,0 -0.1,0.045 -0.1,0.1 l 0,5.9 c 0,0.1 0.1,0 0,0 l -11.8,0 c -0.1,0 0,0.1 0,0 l 0,-5.9 c 0,-0.055 -0.045,-0.1 -0.1,-0.1 l -12,0 c -0.055,0 -0.1,0.045 -0.1,0.1 l 0,5.9 c 0,0.1 0.1,0 0,0 l -11.8,0 c -0.1,0 0,0.1 0,0 l 0,-5.9 c 0,-0.055 -0.045,-0.1 -0.1,-0.1 l -12,0 c -0.055,0 -0.1,0.045 -0.1,0.1 l 0,5.9 c 0,0.1 0.1,0 0,0 l -11.8,0 c -0.1,0 0,0.1 0,0 l 0,-5.9 c 0,-0.055 -0.045,-0.1 -0.1,-0.1 l -12,0 c -0.055,0 -0.1,0.045 -0.1,0.1 l 0,5.9 c 0,0.1 0.1,0 0,0 l -11.8,0 c -0.1,0 0,0.1 0,0 l 0,-5.9 c 0,-0.055 -0.045,-0.1 -0.1,-0.1 l -12,0 c -0.055,0 -0.1,0.045 -0.1,0.1 l 0,5.9 c 0,0.1 0.1,0 0,0 l -11.8,0 c -0.1,0 0,0.1 0,0 l 0,-5.9 c 0,-0.055 -0.045,-0.1 -0.1,-0.1 l -12,0 c -0.055,0 -0.1,0.045 -0.1,0.1 l 0,5.9 c 0,0.1 0.1,0 0,0 l -11.8,0 c -0.1,0 0,0.1 0,0 l 0,-5.9 C 88.2,10.045 88.155,10 88.1,10 l -12,0 C 76.045,10 76,10.045 76,10.1 l 0,5.9 c 0,0.1 0.1,0 0,0 l -11.8,0 c -0.1,0 0,0.1 0,0 l 0,-5.9 C 64.2,10.045 64.155,10 64.1,10 l -12,0 C 52.045,10 52,10.045 52,10.1 l 0,5.9 c 0,0.1 0.1,0 0,0 l -11.8,0 c -0.1,0 0,0.1 0,0 l 0,-5.9 C 40.2,10.045 40.155,10 40.1,10 l -12,0 C 28.045,10 28,10.045 28,10.1 l 0,5.9 c 0,0.1 0.1,0 0,0 L 16.1,16 C 16.045,16 16,16.045 16,16.1 L 16,33 c 0,0.1 0.1,0 0,0 l -5.9,0 C 10.045,33 10,33.045 10,33.1 l 0,12 c 0,0.055 0.045,0.1 0.1,0.1 l 5.9,0 c 0.1,0 0,-0.1 0,0 L 16,57 c 0,0.1 0.1,0 0,0 l -5.9,0 C 10.045,57 10,57.045 10,57.1 l 0,12 c 0,0.055 0.045,0.1 0.1,0.1 l 5.9,0 c 0.1,0 0,-0.1 0,0 L 16,81 c 0,0.1 0.1,0 0,0 l -5.9,0 C 10.045,81 10,81.045 10,81.1 l 0,12 c 0,0.055 0.045,0.1 0.1,0.1 l 5.9,0 c 0.1,0 0,-0.1 0,0 l 0,11.8 c 0,0.1 0.1,0 0,0 l -5.9,0 c -0.055,0 -0.1,0.045 -0.1,0.1 l 0,12 c 0,0.055 0.045,0.1 0.1,0.1 l 5.9,0 c 0.1,0 0,-0.1 0,0 l 0,11.8 c 0,0.1 0.1,0 0,0 l -5.9,0 c -0.055,0 -0.1,0.045 -0.1,0.1 l 0,12 c 0,0.055 0.045,0.1 0.1,0.1 l 5.9,0 c 0.1,0 0,-0.1 0,0 l 0,11.8 c 0,0.1 0.1,0 0,0 l -5.9,0 c -0.055,0 -0.1,0.045 -0.1,0.1 l 0,12 c 0,0.055 0.045,0.1 0.1,0.1 l 5.9,0 c 0.1,0 0,-0.1 0,0 l 0,11.8 c 0,0.1 0.1,0 0,0 l -5.9,0 c -0.055,0 -0.1,0.045 -0.1,0.1 l 0,12 c 0,0.055 0.045,0.1 0.1,0.1 l 5.9,0 c 0.1,0 0,-0.1 0,0 l 0,11.8 c 0,0.1 0.1,0 0,0 l -5.9,0 c -0.055,0 -0.1,0.045 -0.1,0.1 l 0,12 c 0,0.055 0.045,0.1 0.1,0.1 l 5.9,0 c 0.1,0 0,-0.1 0,0 l 0,11.8 c 0,0.1 0.1,0 0,0 l -5.9,0 c -0.055,0 -0.1,0.045 -0.1,0.1 l 0,12 c 0,0.055 0.045,0.1 0.1,0.1 l 5.9,0 c 0.1,0 0,-0.1 0,0 l 0,11.8 c 0,0.1 0.1,0 0,0 l -5.9,0 c -0.055,0 -0.1,0.045 -0.1,0.1 l 0,12 c 0,0.055 0.045,0.1 0.1,0.1 l 5.9,0 c 0.1,0 0,-0.1 0,0 l 0,11.8 c 0,0.1 0.1,0 0,0 l -5.9,0 c -0.055,0 -0.1,0.045 -0.1,0.1 l 0,12 c 0,0.055 0.045,0.1 0.1,0.1 l 5.9,0 c 0.1,0 0,-0.1 0,0 l 0,11.8 c 0,0.1 0.1,0 0,0 l -5.9,0 c -0.055,0 -0.1,0.045 -0.1,0.1 l 0,12 c 0,0.055 0.045,0.1 0.1,0.1 l 5.9,0 c 0.1,0 0,-0.1 0,0 l 0,11.8 c 0,0.1 0.1,0 0,0 l -5.9,0 c -0.055,0 -0.1,0.045 -0.1,0.1 l 0,12 c 0,0.055 0.045,0.1 0.1,0.1 l 5.9,0 c 0.1,0 0,-0.1 0,0 l 0,11.8 c 0,0.1 0.1,0 0,0 l -5.9,0 c -0.055,0 -0.1,0.045 -0.1,0.1 l 0,12 c 0,0.055 0.045,0.1 0.1,0.1 l 5.9,0 c 0.1,0 0,-0.1 0,0 l 0,11.8 c 0,0.1 0.1,0 0,0 l -5.9,0 c -0.055,0 -0.1,0.045 -0.1,0.1 l 0,12 c 0,0.055 0.045,0.1 0.1,0.1 l 5.9,0 c 0.1,0 0,-0.1 0,0 l 0,11.8 c 0,0.1 0.1,0 0,0 l -5.9,0 c -0.055,0 -0.1,0.045 -0.1,0.1 l 0,12 c 0,0.055 0.045,0.1 0.1,0.1 l 5.9,0 c 0.1,0 0,-0.1 0,0 l 0,11.8 c 0,0.1 0.1,0 0,0 l -5.9,0 c -0.055,0 -0.1,0.045 -0.1,0.1 l 0,12 c 0,0.055 0.045,0.1 0.1,0.1 l 5.9,0 c 0.1,0 0,-0.1 0,0 l 0,11.8 c 0,0.1 0.1,0 0,0 l -5.9,0 c -0.055,0 -0.1,0.045 -0.1,0.1 l 0,12 c 0,0.055 0.045,0.1 0.1,0.1 l 5.9,0 c 0.1,0 0,-0.1 0,0 l 0,11.8 c 0,0.1 0.1,0 0,0 l -5.9,0 c -0.055,0 -0.1,0.045 -0.1,0.1 l 0,12 c 0,0.055 0.045,0.1 0.1,0.1 l 5.9,0 c 0.1,0 0,-0.1 0,0 l 0,11.8 c 0,0.1 0.1,0 0,0 l -5.9,0 c -0.055,0 -0.1,0.045 -0.1,0.1 l 0,12 c 0,0.055 0.045,0.1 0.1,0.1 l 5.9,0 c 0.1,0 0,-0.1 0,0 l 0,16.9 c 0,0.055 0.045,0.1 0.1,0.1 z" />
    </g>
    <rect
       ry="5"
       rx="5"
       y="141.56702"
       x="652.68304"
       height="220"
       width="470"
       id="rect4273"
       style="opacity:1;fill:none;fill-opacity:1;fill-rule:nonzero;stroke:#ff0000;stroke-width:0.2;stroke-linecap:round;stroke-linejoin:round;stroke-miterlimit:4;stroke-dasharray:none;stroke-opacity:1" />
    <g
       transform="translate(643.58303,-369.93296)"
       id="g4293">
      <ellipse
         ry="1.5000002"
         rx="1.5000001"
         cy="739"
         cx="1.5999657"
         id="ellipse4285"
         style="opacity:1;fill:none;fill-opacity:1;fill-rule:nonzero;stroke:#ff0000;stroke-width:0.20000003;stroke-linecap:round;stroke-linejoin:round;stroke-miterlimit:4;stroke-dasharray:none;stroke-opacity:1" />
      <ellipse
         style="opacity:1;fill:none;fill-opacity:1;fill-rule:nonzero;stroke:#ff0000;stroke-width:0.20000003;stroke-linecap:round;stroke-linejoin:round;stroke-miterlimit:4;stroke-dasharray:none;stroke-opacity:1"
         id="ellipse4287"
         cx="486.60001"
         cy="739"
         rx="1.5000001"
         ry="1.5000002" />
      <ellipse
         style="opacity:1;fill:none;fill-opacity:1;fill-rule:nonzero;stroke:#ff0000;stroke-width:0.20000003;stroke-linecap:round;stroke-linejoin:round;stroke-miterlimit:4;stroke-dasharray:none;stroke-opacity:1"
         id="ellipse4289"
         cx="1.5999657"
         cy="503.99997"
         rx="1.5000001"
         ry="1.5000002" />
      <ellipse
         ry="1.5000002"
         rx="1.5000001"
         cy="503.99997"
         cx="486.60001"
         id="ellipse4291"
         style="opacity:1;fill:none;fill-opacity:1;fill-rule:nonzero;stroke:#ff0000;stroke-width:0.20000003;stroke-linecap:round;stroke-linejoin:round;stroke-miterlimit:4;stroke-dasharray:none;stroke-opacity:1" />
    </g>
  </g>
</svg>
