<?xml version="1.0" encoding="UTF-8" standalone="no"?>
<svg
   xmlns:dc="http://purl.org/dc/elements/1.1/"
   xmlns:cc="http://creativecommons.org/ns#"
   xmlns:rdf="http://www.w3.org/1999/02/22-rdf-syntax-ns#"
   xmlns:svg="http://www.w3.org/2000/svg"
   xmlns="http://www.w3.org/2000/svg"
   xmlns:sodipodi="http://sodipodi.sourceforge.net/DTD/sodipodi-0.dtd"
   xmlns:inkscape="http://www.inkscape.org/namespaces/inkscape"
   width="256.64978mm"
   height="190.15034mm"
   viewBox="0 0 256.64978 190.15034"
   version="1.1"
   id="svg1559"
   sodipodi:docname="zynthia16_case_deploy.svg"
   inkscape:version="1.0.2 (e86c8708, 2021-01-15)">
  <defs
     id="defs1553" />
  <sodipodi:namedview
     id="base"
     pagecolor="#ffffff"
     bordercolor="#666666"
     borderopacity="1.0"
     inkscape:pageopacity="0.0"
     inkscape:pageshadow="2"
     inkscape:zoom="0.71526446"
     inkscape:cx="510.28029"
     inkscape:cy="254.34357"
     inkscape:document-units="mm"
     inkscape:current-layer="layer1"
     inkscape:document-rotation="0"
     showgrid="false"
     inkscape:window-width="1440"
     inkscape:window-height="791"
     inkscape:window-x="0"
     inkscape:window-y="25"
     inkscape:window-maximized="1"
     fit-margin-top="10"
     fit-margin-left="10"
     fit-margin-right="10"
     fit-margin-bottom="10" />
  <metadata
     id="metadata1556">
    <rdf:RDF>
      <cc:Work
         rdf:about="">
        <dc:format>image/svg+xml</dc:format>
        <dc:type
           rdf:resource="http://purl.org/dc/dcmitype/StillImage" />
        <dc:title></dc:title>
      </cc:Work>
    </rdf:RDF>
  </metadata>
  <g
     inkscape:label="Layer 1"
     inkscape:groupmode="layer"
     id="layer1"
     transform="translate(10.05,-116.8996)">
    <text
       xml:space="preserve"
       style="font-size:6.35px;line-height:1.25;font-family:Arial;-inkscape-font-specification:Arial;stroke-width:0.264583"
       x="91.52858"
       y="163.11865"
       id="text2665"><tspan
         sodipodi:role="line"
         id="tspan2663"
         x="91.52858"
         y="163.11865"
         style="font-size:6.35px;stroke-width:0.264583" /></text>
    <path
       id="path2805"
       style="fill:none;fill-opacity:0.717742;stroke:#ff0000;stroke-width:0.377953;stroke-linecap:round;stroke-linejoin:round;stroke-miterlimit:4;stroke-dasharray:none"
       d="M 132.2832,857.95117 C 59.224482,857.95129 -9.5999999e-4,917.17764 0,990.23633 1.4e-4,1063.2942 59.225272,1122.5195 132.2832,1122.5195 h 742.67578 c 10.46933,0 18.89844,-8.429 18.89844,-18.8984 V 876.84961 c 0,-10.46922 -8.42911,-18.89844 -18.89844,-18.89844 z m 94.11133,12.85156 a 6.0472441,6.0472441 0 0 1 6.04688,6.04688 6.0472441,6.0472441 0 0 1 -6.04688,6.04687 6.0472441,6.0472441 0 0 1 -6.04883,-6.04687 6.0472441,6.0472441 0 0 1 6.04883,-6.04688 z m 566.92774,0 a 6.0472441,6.0472441 0 0 1 6.04687,6.04688 6.0472441,6.0472441 0 0 1 -6.04687,6.04687 6.0472441,6.0472441 0 0 1 -6.04688,-6.04687 6.0472441,6.0472441 0 0 1 6.04688,-6.04688 z m -661.41797,15.4961 c 0.12631,-1.9e-4 0.25259,-1.9e-4 0.3789,0 3.88675,-1.9e-4 7.77046,0.21736 11.63282,0.65234 l 91.65039,91.65039 c 0.43551,3.86298 0.65395,7.74726 0.65429,11.63477 -6.6e-4,1.64519 -0.0404,3.29018 -0.11914,4.93359 l -108.7539,-108.7539 c 1.51784,-0.0718 3.03709,-0.11152 4.55664,-0.11719 z m -14.32032,1.04492 117.58985,117.59175 c -0.63878,4.4725 -1.56848,8.8986 -2.78321,13.25 L 104.33203,890.12695 c 4.35212,-1.21477 8.77883,-2.14454 13.25195,-2.7832 z m 39.33204,1.91602 c 9.29193,2.26688 18.2265,5.80554 26.55078,10.51562 l 39.27734,39.27734 c 4.70929,8.32381 8.24723,17.25766 10.51367,26.54883 z m -60.658208,3.48242 133.517578,133.51761 c -1.40759,3.8103 -3.03734,7.5348 -4.88086,11.1543 L 85.103516,897.625 c 3.619491,-1.84418 7.343977,-3.4746 11.154296,-4.88281 z m -18.015624,8.71093 142.822262,142.82228 c -1.99953,3.2864 -4.17996,6.4592 -6.53125,9.5039 L 68.740234,907.98438 c 3.044032,-2.35117 6.216225,-4.53166 9.501954,-6.53126 z M 62.90625,912.83984 209.67578,1059.6094 c -2.5246,2.8171 -5.20111,5.4942 -8.01758,8.0195 L 54.888672,920.85938 c 2.5246,-2.81708 5.201108,-5.49424 8.017578,-8.01954 z m 215.16211,0.85938 c 2.60937,-1.1e-4 4.72471,2.11522 4.72461,4.72461 10e-5,2.60942 -2.11524,4.72472 -4.72461,4.72461 -2.60938,1.1e-4 -4.72471,-2.11519 -4.72461,-4.72461 -10e-5,-2.60939 2.11523,-4.72472 4.72461,-4.72461 z m 136.0625,0 c 2.60939,-1.1e-4 4.72468,2.11522 4.72461,4.72461 7e-5,2.60942 -2.11522,4.72472 -4.72461,4.72461 -2.60935,1.1e-4 -4.72472,-2.11519 -4.72461,-4.72461 -1.1e-4,-2.60939 2.11526,-4.72472 4.72461,-4.72461 z m 68.03125,0 c 2.60935,-1.1e-4 4.72472,2.11522 4.72461,4.72461 1.1e-4,2.60942 -2.11526,4.72472 -4.72461,4.72461 -2.60863,-9.9e-4 -4.72277,-2.11602 -4.72266,-4.72461 -1.1e-4,-2.60859 2.11403,-4.72359 4.72266,-4.72461 z M 50.033203,926.69336 195.82422,1072.4844 c -3.04398,2.3519 -6.21618,4.533 -9.50195,6.5332 L 43.5,936.19531 c 2.00022,-3.28577 4.181313,-6.45792 6.533203,-9.50195 z m 295.830077,1.17969 c 7.30594,-8e-5 13.22861,5.92261 13.22852,13.22851 9e-5,7.3059 -5.92258,13.22863 -13.22852,13.22852 -7.30594,1.1e-4 -13.2286,-5.92262 -13.22851,-13.22852 -9e-5,-7.3059 5.92257,-13.22859 13.22851,-13.22851 z m 204.0957,0 c 7.30594,-8e-5 13.22863,5.92261 13.22852,13.22851 1.1e-4,7.3059 -5.92258,13.22863 -13.22852,13.22852 -7.30594,1.1e-4 -13.22862,-5.92262 -13.22851,-13.22852 -1.1e-4,-7.3059 5.92257,-13.22859 13.22851,-13.22851 z m 68.03125,0 c 7.30594,-8e-5 13.2286,5.92261 13.22852,13.22851 8e-5,7.3059 -5.92258,13.22863 -13.22852,13.22852 -7.30594,1.1e-4 -13.22859,-5.92262 -13.22851,-13.22852 -8e-5,-7.3059 5.92257,-13.22859 13.22851,-13.22851 z m 68.03125,0 c 7.30594,-8e-5 13.22863,5.92261 13.22852,13.22851 1.1e-4,7.3059 -5.92258,13.22863 -13.22852,13.22852 -7.30594,1.1e-4 -13.22859,-5.92262 -13.22851,-13.22852 -8e-5,-7.3059 5.92257,-13.22859 13.22851,-13.22851 z m 68.03125,0 c 7.30594,-8e-5 13.2286,5.92261 13.22852,13.22851 8e-5,7.3059 -5.92258,13.22863 -13.22852,13.22852 -7.30594,1.1e-4 -13.22859,-5.92262 -13.22851,-13.22852 -8e-5,-7.3059 5.92257,-13.22859 13.22851,-13.22851 z m -476.2207,1.55468 c 6.44722,1.2e-4 11.67369,5.22664 11.67383,11.67383 -1.4e-4,6.4472 -5.22661,11.67372 -11.67383,11.67383 -6.44722,-1.1e-4 -11.67369,-5.22663 -11.67383,-11.67383 1.4e-4,-6.44719 5.22661,-11.67371 11.67383,-11.67383 z m 136.0625,0.27149 c 6.29753,-4.9e-4 11.4028,5.10486 11.40235,11.40234 4.5e-4,6.29753 -5.10482,11.40284 -11.40235,11.40235 -6.29673,-6.1e-4 -11.40084,-5.10554 -11.40039,-11.40235 -4.5e-4,-6.2968 5.10366,-11.40174 11.40039,-11.40234 z m 68.0332,0 c 6.29677,6e-4 11.40085,5.10554 11.40039,11.40234 4.6e-4,6.29681 -5.10362,11.40174 -11.40039,11.40235 -6.29752,4.9e-4 -11.40276,-5.10482 -11.40234,-11.40235 -4.2e-4,-6.29748 5.10482,-11.40283 11.40234,-11.40234 z m -105.82812,6.67773 c 2.60936,-7e-5 4.72472,2.11523 4.72461,4.72461 1.1e-4,2.60943 -2.11525,4.72473 -4.72461,4.72461 -2.60937,1.2e-4 -4.72472,-2.11518 -4.72461,-4.72461 -1.1e-4,-2.60938 2.11524,-4.72468 4.72461,-4.72461 z m 340.1582,0 c 2.60935,-7e-5 4.72473,2.11523 4.72461,4.72461 1.2e-4,2.60943 -2.11526,4.72473 -4.72461,4.72461 -2.60938,1.2e-4 -4.72472,-2.11518 -4.72461,-4.72461 -1.1e-4,-2.60938 2.11523,-4.72468 4.72461,-4.72461 z m 68.03125,0 c 2.60939,-7e-5 4.72473,2.11523 4.72461,4.72461 1.2e-4,2.60943 -2.11522,4.72473 -4.72461,4.72461 -2.60935,1.2e-4 -4.72472,-2.11518 -4.72461,-4.72461 -1.1e-4,-2.60938 2.11526,-4.72468 4.72461,-4.72461 z M 39.669922,943.05664 179.46094,1082.8477 c -3.61953,1.8435 -7.34402,3.4732 -11.1543,4.8808 L 34.789062,954.21094 c 1.40759,-3.8103 3.037339,-7.5348 4.88086,-11.1543 z m -7.496094,19.22656 128.058592,128.0586 c -4.35144,1.2154 -8.77749,2.1458 -13.25,2.7852 L 29.390625,975.53516 c 0.6387,-4.47311 1.568393,-8.89987 2.783203,-13.25196 z m 245.621092,18.50196 c 5.21875,-1.9e-4 9.44943,4.23052 9.44922,9.44922 2.1e-4,5.21869 -4.23047,9.44944 -9.44922,9.44921 -5.21874,2.3e-4 -9.44943,-4.23052 -9.44922,-9.44921 -2.1e-4,-5.2187 4.23048,-9.44941 9.44922,-9.44922 z m 68.03125,0 c 5.21875,-1.9e-4 9.44943,4.23052 9.44922,9.44922 2.1e-4,5.21869 -4.23047,9.44944 -9.44922,9.44921 -5.21874,2.3e-4 -9.44943,-4.23052 -9.44922,-9.44921 -2.1e-4,-5.2187 4.23048,-9.44941 9.44922,-9.44922 z m 68.03125,0 c 5.21877,-1.9e-4 9.44945,4.23052 9.44922,9.44922 2.3e-4,5.21869 -4.23045,9.44944 -9.44922,9.44921 -5.21873,2.3e-4 -9.44944,-4.23052 -9.44922,-9.44921 -2.2e-4,-5.2187 4.23049,-9.44941 9.44922,-9.44922 z m 68.03125,0 c 5.21874,-1.9e-4 9.44941,4.23052 9.44922,9.44922 1.9e-4,5.21869 -4.23048,9.44944 -9.44922,9.44921 -5.21873,2.3e-4 -9.44941,-4.23052 -9.44922,-9.44921 -1.9e-4,-5.2187 4.23049,-9.44941 9.44922,-9.44922 z m 68.03125,0 c 5.21877,-1.9e-4 9.44945,4.23052 9.44922,9.44922 2.3e-4,5.21869 -4.23045,9.44944 -9.44922,9.44921 -5.21798,-8.7e-4 -9.44749,-4.2312 -9.44726,-9.44921 -2.3e-4,-5.21798 4.22928,-9.44832 9.44726,-9.44922 z m 68.03125,0 c 5.21874,-1.9e-4 9.44945,4.23052 9.44922,9.44922 2.3e-4,5.21869 -4.23048,9.44944 -9.44922,9.44921 -5.21798,-8.7e-4 -9.44745,-4.2312 -9.44726,-9.44921 -1.9e-4,-5.21798 4.22928,-9.44832 9.44726,-9.44922 z m 68.03321,0 c 5.21797,9e-4 9.44745,4.23124 9.44726,9.44922 1.9e-4,5.21801 -4.22929,9.44834 -9.44726,9.44921 -5.21874,2.3e-4 -9.44945,-4.23052 -9.44922,-9.44921 -2.3e-4,-5.2187 4.23048,-9.44941 9.44922,-9.44922 z m 68.03124,0 c 5.21878,-1.9e-4 9.44945,4.23052 9.44922,9.44922 2.3e-4,5.21869 -4.23044,9.44944 -9.44922,9.44921 -5.21873,2.3e-4 -9.44944,-4.23052 -9.44921,-9.44921 -2.3e-4,-5.2187 4.23048,-9.44941 9.44921,-9.44922 z M 28.462891,985.29883 137.21875,1094.0547 c -1.64402,0.078 -3.28967,0.1172 -4.93555,0.1172 -3.8874,3e-4 -7.77176,-0.2174 -11.63476,-0.6524 L 29,1001.8711 c -0.43551,-3.86291 -0.653947,-7.74738 -0.654297,-11.63477 -5e-5,-1.64648 0.039,-3.2928 0.117188,-4.9375 z m 2.84375,29.56837 76.343749,76.3437 c -9.29416,-2.2676 -18.230753,-5.8075 -26.55664,-10.5195 L 41.820312,1041.418 c -4.709459,-8.3244 -8.247402,-17.259 -10.513671,-26.5508 z m 246.525389,11.2734 c 7.30594,-10e-5 13.2286,5.9226 13.22852,13.2285 8e-5,7.3059 -5.92258,13.2287 -13.22852,13.2286 -7.30594,10e-5 -13.2286,-5.9227 -13.22851,-13.2286 -9e-5,-7.3059 5.92257,-13.2286 13.22851,-13.2285 z m 68.03125,0 c 7.30594,-10e-5 13.22861,5.9226 13.22852,13.2285 9e-5,7.3059 -5.92258,13.2287 -13.22852,13.2286 -7.30594,10e-5 -13.2286,-5.9227 -13.22851,-13.2286 -9e-5,-7.3059 5.92257,-13.2286 13.22851,-13.2285 z m 68.03125,0 c 7.30594,-10e-5 13.22859,5.9226 13.22852,13.2285 7e-5,7.3059 -5.92258,13.2287 -13.22852,13.2286 -7.30594,10e-5 -13.22863,-5.9227 -13.22851,-13.2286 -1.2e-4,-7.3059 5.92257,-13.2286 13.22851,-13.2285 z m 68.0332,0 c 7.30519,10e-4 13.22668,5.9234 13.22657,13.2285 1.1e-4,7.3053 -5.92138,13.2276 -13.22657,13.2286 -7.30594,10e-5 -13.22859,-5.9227 -13.22851,-13.2286 -8e-5,-7.3059 5.92257,-13.2286 13.22851,-13.2285 z m 68.03125,0 c 7.30594,-10e-5 13.22863,5.9226 13.22852,13.2285 1.1e-4,7.3059 -5.92258,13.2287 -13.22852,13.2286 -7.30594,10e-5 -13.22862,-5.9227 -13.22851,-13.2286 -1.1e-4,-7.3059 5.92257,-13.2286 13.22851,-13.2285 z m 68.03125,0 c 7.30594,-10e-5 13.2286,5.9226 13.22852,13.2285 8e-5,7.3059 -5.92258,13.2287 -13.22852,13.2286 -7.30594,10e-5 -13.22859,-5.9227 -13.22851,-13.2286 -8e-5,-7.3059 5.92257,-13.2286 13.22851,-13.2285 z m 68.03125,0 c 7.30594,-10e-5 13.22863,5.9226 13.22852,13.2285 1.1e-4,7.3059 -5.92258,13.2287 -13.22852,13.2286 -7.30594,10e-5 -13.22859,-5.9227 -13.22851,-13.2286 -8e-5,-7.3059 5.92257,-13.2286 13.22851,-13.2285 z m 68.03125,0 c 7.30594,-10e-5 13.2286,5.9226 13.22852,13.2285 8e-5,7.3059 -5.92258,13.2287 -13.22852,13.2286 -7.30594,10e-5 -13.22859,-5.9227 -13.22851,-13.2286 -8e-5,-7.3059 5.92257,-13.2286 13.22851,-13.2285 z m -506.49414,8.5039 c 2.60937,0 4.72472,2.1153 4.72461,4.7246 1.1e-4,2.6095 -2.11524,4.7248 -4.72461,4.7247 -2.60937,10e-5 -4.72471,-2.1152 -4.72461,-4.7247 -1e-4,-2.6093 2.11524,-4.7246 4.72461,-4.7246 z m 68.03125,0 c 2.60937,0 4.72472,2.1153 4.72461,4.7246 1.1e-4,2.6095 -2.11524,4.7248 -4.72461,4.7247 -2.60937,10e-5 -4.72471,-2.1152 -4.72461,-4.7247 -10e-5,-2.6093 2.11524,-4.7246 4.72461,-4.7246 z m 68.03125,0 c 2.60935,0 4.72473,2.1153 4.72461,4.7246 1.2e-4,2.6095 -2.11526,4.7248 -4.72461,4.7247 -2.60938,10e-5 -4.72472,-2.1152 -4.72461,-4.7247 -1.1e-4,-2.6093 2.11523,-4.7246 4.72461,-4.7246 z m 68.03125,0 c 2.60939,0 4.72473,2.1153 4.72461,4.7246 1.2e-4,2.6095 -2.11522,4.7248 -4.72461,4.7247 -2.60938,10e-5 -4.72472,-2.1152 -4.72461,-4.7247 -1.1e-4,-2.6093 2.11523,-4.7246 4.72461,-4.7246 z m 68.03125,0 c 2.60939,0 4.72473,2.1153 4.72461,4.7246 1.2e-4,2.6095 -2.11522,4.7248 -4.72461,4.7247 -2.60934,10e-5 -4.72472,-2.1152 -4.72461,-4.7247 -1.1e-4,-2.6093 2.11527,-4.7246 4.72461,-4.7246 z m 68.03321,0 c 2.60859,0 4.72277,2.116 4.72265,4.7246 1.2e-4,2.6086 -2.11406,4.7237 -4.72265,4.7247 -2.60939,10e-5 -4.72473,-2.1152 -4.72461,-4.7247 -1.2e-4,-2.6093 2.11522,-4.7246 4.72461,-4.7246 z m 68.03125,0 c 2.60938,0 4.72468,2.1153 4.72461,4.7246 7e-5,2.6095 -2.11523,4.7248 -4.72461,4.7247 -2.60935,10e-5 -4.72473,-2.1152 -4.72461,-4.7247 -1.2e-4,-2.6093 2.11526,-4.7246 4.72461,-4.7246 z m 68.03125,0 c 2.60934,0 4.72472,2.1153 4.72461,4.7246 1.1e-4,2.6095 -2.11527,4.7248 -4.72461,4.7247 -2.60939,10e-5 -4.72469,-2.1152 -4.72461,-4.7247 -8e-5,-2.6093 2.11522,-4.7246 4.72461,-4.7246 z m -497.38477,62.9297 a 6.0472441,6.0472441 0 0 1 6.04688,6.0469 6.0472441,6.0472441 0 0 1 -6.04688,6.0469 6.0472441,6.0472441 0 0 1 -6.04883,-6.0469 6.0472441,6.0472441 0 0 1 6.04883,-6.0469 z m 566.92774,0 a 6.0472441,6.0472441 0 0 1 6.04687,6.0469 6.0472441,6.0472441 0 0 1 -6.04687,6.0469 6.0472441,6.0472441 0 0 1 -6.04688,-6.0469 6.0472441,6.0472441 0 0 1 6.04688,-6.0469 z"
       transform="scale(0.26458333)" />
    <g
       aria-label="VOLUME"
       id="text2911"
       style="font-style:normal;font-variant:normal;font-weight:bold;font-stretch:normal;font-size:3.52778px;line-height:1.25;font-family:Helvetica;-inkscape-font-specification:'Helvetica Bold';stroke-width:0.264583"
       transform="translate(66.499816,-79.083516)">
      <path
         d="m 127.4679,316.02169 h 0.55122 l -0.86645,2.53904 h -0.50126 l -0.85783,-2.53904 h 0.56672 l 0.55122,1.92754 z"
         style="font-style:normal;font-variant:normal;font-weight:bold;font-stretch:normal;font-size:3.52778px;font-family:Helvetica;-inkscape-font-specification:'Helvetica Bold';stroke-width:0.264583"
         id="path3028" />
      <path
         d="m 129.46089,318.18177 q 0.31523,0 0.49954,-0.23254 0.18603,-0.23255 0.18603,-0.66146 0,-0.4272 -0.18603,-0.65974 -0.18431,-0.23427 -0.49954,-0.23427 -0.31523,0 -0.50298,0.23255 -0.18776,0.23254 -0.18776,0.66146 0,0.42891 0.18776,0.66146 0.18775,0.23254 0.50298,0.23254 z m 1.21612,-0.894 q 0,0.68385 -0.38413,1.04731 -0.28766,0.29627 -0.83199,0.29627 -0.54433,0 -0.83199,-0.29627 -0.38585,-0.36346 -0.38585,-1.04731 0,-0.69764 0.38585,-1.04731 0.28766,-0.29628 0.83199,-0.29628 0.54433,0 0.83199,0.29628 0.38413,0.34967 0.38413,1.04731 z m -1.21612,-1.34359 z"
         style="font-style:normal;font-variant:normal;font-weight:bold;font-stretch:normal;font-size:3.52778px;font-family:Helvetica;-inkscape-font-specification:'Helvetica Bold';stroke-width:0.264583"
         id="path3030" />
      <path
         d="m 131.08009,316.02169 h 0.53054 v 2.08256 h 1.25746 v 0.45648 h -1.788 z"
         style="font-style:normal;font-variant:normal;font-weight:bold;font-stretch:normal;font-size:3.52778px;font-family:Helvetica;-inkscape-font-specification:'Helvetica Bold';stroke-width:0.264583"
         id="path3032" />
      <path
         d="m 133.23672,316.02169 h 0.53915 v 1.56063 q 0,0.26183 0.062,0.38241 0.0965,0.21359 0.4203,0.21359 0.32212,0 0.41858,-0.21359 0.062,-0.12058 0.062,-0.38241 v -1.56063 h 0.53916 v 1.56063 q 0,0.4048 -0.12575,0.63046 -0.23427,0.41341 -0.894,0.41341 -0.65974,0 -0.89573,-0.41341 -0.12574,-0.22566 -0.12574,-0.63046 z m 1.02147,0 z"
         style="font-style:normal;font-variant:normal;font-weight:bold;font-stretch:normal;font-size:3.52778px;font-family:Helvetica;-inkscape-font-specification:'Helvetica Bold';stroke-width:0.264583"
         id="path3034" />
      <path
         d="m 137.46902,316.02169 h 0.76309 v 2.53904 h -0.49437 v -1.71738 q 0,-0.0741 0.002,-0.20671 0.002,-0.13436 0.002,-0.2067 l -0.48059,2.13079 h -0.51504 l -0.47715,-2.13079 q 0,0.0723 0.002,0.2067 0.002,0.13264 0.002,0.20671 v 1.71738 h -0.49437 v -2.53904 h 0.7717 l 0.46164,1.99644 z"
         style="font-style:normal;font-variant:normal;font-weight:bold;font-stretch:normal;font-size:3.52778px;font-family:Helvetica;-inkscape-font-specification:'Helvetica Bold';stroke-width:0.264583"
         id="path3036" />
      <path
         d="m 140.60578,316.47128 h -1.34359 v 0.53916 h 1.23335 v 0.44097 h -1.23335 v 0.65284 h 1.4056 v 0.45648 h -1.92408 v -2.53904 h 1.86207 z"
         style="font-style:normal;font-variant:normal;font-weight:bold;font-stretch:normal;font-size:3.52778px;font-family:Helvetica;-inkscape-font-specification:'Helvetica Bold';stroke-width:0.264583"
         id="path3038" />
    </g>
    <g
       aria-label="PHASE"
       id="text2915"
       style="font-style:normal;font-variant:normal;font-weight:bold;font-stretch:normal;font-size:3.52778px;line-height:1.25;font-family:Helvetica;-inkscape-font-specification:'Helvetica Bold';stroke-width:0.264583"
       transform="translate(66.499816,-79.083516)">
      <path
         d="m 110.75037,316.82957 q 0,-0.19809 -0.10508,-0.2825 -0.10335,-0.0844 -0.29111,-0.0844 h -0.49437 v 0.74758 h 0.49437 q 0.18776,0 0.29111,-0.0913 0.10508,-0.0913 0.10508,-0.28939 z m 0.52537,-0.003 q 0,0.44959 -0.22737,0.63562 -0.22738,0.18604 -0.6494,0.18604 h -0.53916 v 0.91295 h -0.5271 v -2.53904 h 1.10588 q 0.3824,0 0.60978,0.19637 0.22737,0.19637 0.22737,0.60806 z"
         style="font-style:normal;font-variant:normal;font-weight:bold;font-stretch:normal;font-size:3.52778px;font-family:Helvetica;-inkscape-font-specification:'Helvetica Bold';stroke-width:0.264583"
         id="path3017" />
      <path
         d="m 111.67365,318.56073 v -2.53904 h 0.52538 v 0.96808 h 0.99219 v -0.96808 h 0.5271 v 2.53904 h -0.5271 v -1.13344 h -0.99219 v 1.13344 z"
         style="font-style:normal;font-variant:normal;font-weight:bold;font-stretch:normal;font-size:3.52778px;font-family:Helvetica;-inkscape-font-specification:'Helvetica Bold';stroke-width:0.264583"
         id="path3019" />
      <path
         d="m 114.92066,317.60127 h 0.64423 l -0.31695,-0.99908 z m 0.0327,-1.57958 h 0.59944 l 0.89917,2.53904 h -0.57533 L 115.713,318.0388 h -0.93534 l -0.1757,0.52193 h -0.55467 z m 0.29627,0 z"
         style="font-style:normal;font-variant:normal;font-weight:bold;font-stretch:normal;font-size:3.52778px;font-family:Helvetica;-inkscape-font-specification:'Helvetica Bold';stroke-width:0.264583"
         id="path3021" />
      <path
         d="m 117.15997,317.77697 q 0.0241,0.17398 0.0947,0.26011 0.12919,0.15675 0.4427,0.15675 0.18775,0 0.30489,-0.0413 0.22221,-0.0792 0.22221,-0.29456 0,-0.12575 -0.11025,-0.19465 -0.11024,-0.0672 -0.34623,-0.11885 l -0.26872,-0.0603 q -0.39618,-0.0896 -0.54777,-0.19465 -0.25666,-0.1757 -0.25666,-0.54949 0,-0.34107 0.24805,-0.56672 0.24805,-0.22566 0.72864,-0.22566 0.40135,0 0.68385,0.2136 0.28422,0.21187 0.298,0.61667 h -0.50987 q -0.0138,-0.2291 -0.19982,-0.32556 -0.12402,-0.0637 -0.30834,-0.0637 -0.20498,0 -0.32728,0.0827 -0.1223,0.0827 -0.1223,0.23082 0,0.13608 0.12058,0.20326 0.0775,0.0448 0.33073,0.10508 l 0.43752,0.10507 q 0.28767,0.0689 0.43409,0.18431 0.22737,0.17915 0.22737,0.51849 0,0.34796 -0.26699,0.57878 -0.26527,0.2291 -0.75103,0.2291 -0.4961,0 -0.78032,-0.22566 -0.28422,-0.22737 -0.28422,-0.62356 z m 0.51504,-1.83279 z"
         style="font-style:normal;font-variant:normal;font-weight:bold;font-stretch:normal;font-size:3.52778px;font-family:Helvetica;-inkscape-font-specification:'Helvetica Bold';stroke-width:0.264583"
         id="path3023" />
      <path
         d="m 121.00987,316.47128 h -1.34359 v 0.53916 h 1.23334 v 0.44097 h -1.23334 v 0.65284 h 1.4056 v 0.45648 h -1.92409 v -2.53904 h 1.86208 z"
         style="font-style:normal;font-variant:normal;font-weight:bold;font-stretch:normal;font-size:3.52778px;font-family:Helvetica;-inkscape-font-specification:'Helvetica Bold';stroke-width:0.264583"
         id="path3025" />
    </g>
    <g
       aria-label="CLOCK"
       id="text2919"
       style="font-style:normal;font-variant:normal;font-weight:bold;font-stretch:normal;font-size:3.52778px;line-height:1.25;font-family:Helvetica;-inkscape-font-specification:'Helvetica Bold';stroke-width:0.264583"
       transform="translate(66.499816,-79.083516)">
      <path
         d="m 18.88148,317.31188 q 0,-0.6649 0.356567,-1.02491 0.310059,-0.31351 0.788928,-0.31351 0.640788,0 0.937066,0.4203 0.163642,0.23599 0.1757,0.4737 h -0.530545 q -0.05168,-0.18259 -0.132636,-0.2756 -0.144694,-0.16537 -0.428915,-0.16537 -0.289388,0 -0.456475,0.23427 -0.167087,0.23254 -0.167087,0.65973 0,0.4272 0.1757,0.64079 0.177422,0.21188 0.449585,0.21188 0.279053,0 0.425469,-0.18259 0.08096,-0.0982 0.134359,-0.29456 h 0.525378 q -0.0689,0.41513 -0.353123,0.67524 -0.282498,0.2601 -0.725193,0.2601 -0.54777,0 -0.861274,-0.3514 -0.313504,-0.35312 -0.313504,-0.96807 z m 1.129992,-1.3677 z"
         style="font-style:normal;font-variant:normal;font-weight:bold;font-stretch:normal;font-size:3.52778px;font-family:Helvetica;-inkscape-font-specification:'Helvetica Bold';stroke-width:0.264583"
         id="path2943" />
      <path
         d="m 21.541095,316.02169 h 0.530545 v 2.08256 h 1.257461 v 0.45648 h -1.788006 z"
         style="font-style:normal;font-variant:normal;font-weight:bold;font-stretch:normal;font-size:3.52778px;font-family:Helvetica;-inkscape-font-specification:'Helvetica Bold';stroke-width:0.264583"
         id="path2945" />
      <path
         d="m 24.820828,318.18177 q 0.315226,0 0.499539,-0.23254 0.186035,-0.23255 0.186035,-0.66146 0,-0.4272 -0.186035,-0.65974 -0.184313,-0.23427 -0.499539,-0.23427 -0.315226,0 -0.502984,0.23255 -0.187758,0.23254 -0.187758,0.66146 0,0.42891 0.187758,0.66146 0.187758,0.23254 0.502984,0.23254 z m 1.216119,-0.894 q 0,0.68385 -0.384128,1.04731 -0.287666,0.29627 -0.831991,0.29627 -0.544325,0 -0.831991,-0.29627 -0.385851,-0.36346 -0.385851,-1.04731 0,-0.69764 0.385851,-1.04731 0.287666,-0.29628 0.831991,-0.29628 0.544325,0 0.831991,0.29628 0.384128,0.34967 0.384128,1.04731 z m -1.216119,-1.34359 z"
         style="font-style:normal;font-variant:normal;font-weight:bold;font-stretch:normal;font-size:3.52778px;font-family:Helvetica;-inkscape-font-specification:'Helvetica Bold';stroke-width:0.264583"
         id="path2947" />
      <path
         d="m 26.329781,317.31188 q 0,-0.6649 0.356568,-1.02491 0.310059,-0.31351 0.788927,-0.31351 0.640788,0 0.937067,0.4203 0.163642,0.23599 0.1757,0.4737 h -0.530545 q -0.05168,-0.18259 -0.132637,-0.2756 -0.144694,-0.16537 -0.428914,-0.16537 -0.289389,0 -0.456476,0.23427 -0.167087,0.23254 -0.167087,0.65973 0,0.4272 0.1757,0.64079 0.177423,0.21188 0.449585,0.21188 0.279053,0 0.42547,-0.18259 0.08096,-0.0982 0.134359,-0.29456 h 0.525377 q -0.0689,0.41513 -0.353123,0.67524 -0.282498,0.2601 -0.725193,0.2601 -0.54777,0 -0.861274,-0.3514 -0.313504,-0.35312 -0.313504,-0.96807 z m 1.129992,-1.3677 z"
         style="font-style:normal;font-variant:normal;font-weight:bold;font-stretch:normal;font-size:3.52778px;font-family:Helvetica;-inkscape-font-specification:'Helvetica Bold';stroke-width:0.264583"
         id="path2949" />
      <path
         d="m 28.998009,316.02169 h 0.521932 v 1.04559 l 0.98013,-1.04559 h 0.685575 l -1.04042,1.04559 1.093819,1.49345 h -0.68213 l -0.783759,-1.10932 -0.253215,0.2601 v 0.84922 h -0.521932 z"
         style="font-style:normal;font-variant:normal;font-weight:bold;font-stretch:normal;font-size:3.52778px;font-family:Helvetica;-inkscape-font-specification:'Helvetica Bold';stroke-width:0.264583"
         id="path2951" />
    </g>
    <g
       aria-label="FWD/BCK"
       id="text2923"
       style="font-style:normal;font-variant:normal;font-weight:bold;font-stretch:normal;font-size:3.52778px;line-height:1.25;font-family:Helvetica;-inkscape-font-specification:'Helvetica Bold';stroke-width:0.264583"
       transform="translate(66.499816,-79.083516)">
      <path
         d="m 34.908278,316.02514 h 1.800064 v 0.44614 h -1.272964 v 0.58394 h 1.114489 v 0.44097 h -1.114489 v 1.06454 h -0.5271 z"
         style="font-style:normal;font-variant:normal;font-weight:bold;font-stretch:normal;font-size:3.52778px;font-family:Helvetica;-inkscape-font-specification:'Helvetica Bold';stroke-width:0.264583"
         id="path2965" />
      <path
         d="m 37.411142,316.02169 0.335897,1.45383 0.07235,0.4048 0.07407,-0.39618 0.285943,-1.46245 h 0.559828 l 0.301446,1.45383 0.07752,0.4048 0.07751,-0.38929 0.339343,-1.46934 h 0.539157 l -0.714857,2.53904 h -0.50643 l -0.306613,-1.48484 -0.08957,-0.49092 -0.08957,0.49092 -0.306613,1.48484 h -0.492649 l -0.720026,-2.53904 z"
         style="font-style:normal;font-variant:normal;font-weight:bold;font-stretch:normal;font-size:3.52778px;font-family:Helvetica;-inkscape-font-specification:'Helvetica Bold';stroke-width:0.264583"
         id="path2967" />
      <path
         d="m 40.907916,316.46267 v 1.65709 h 0.489204 q 0.375515,0 0.523654,-0.37035 0.08096,-0.20326 0.08096,-0.48404 0,-0.38757 -0.122301,-0.59428 -0.120578,-0.20842 -0.482313,-0.20842 z m 0.578776,-0.44098 q 0.235989,0.003 0.392741,0.0551 0.266995,0.0879 0.43236,0.32212 0.132636,0.18948 0.180868,0.40997 0.04823,0.22048 0.04823,0.4203 0,0.50643 -0.203261,0.85783 -0.275608,0.4737 -0.850939,0.4737 h -1.093818 v -2.53904 z"
         style="font-style:normal;font-variant:normal;font-weight:bold;font-stretch:normal;font-size:3.52778px;font-family:Helvetica;-inkscape-font-specification:'Helvetica Bold';stroke-width:0.264583"
         id="path2969" />
      <path
         d="m 43.464179,315.94418 h 0.408244 l -0.987021,2.61655 h -0.404799 z"
         style="font-style:normal;font-variant:normal;font-weight:bold;font-stretch:normal;font-size:3.52778px;font-family:Helvetica;-inkscape-font-specification:'Helvetica Bold';stroke-width:0.264583"
         id="path2971" />
      <path
         d="m 44.435696,316.46267 v 0.55982 h 0.623563 q 0.167087,0 0.27044,-0.062 0.105076,-0.0637 0.105076,-0.22393 0,-0.17742 -0.137804,-0.23427 -0.118856,-0.0396 -0.303169,-0.0396 z m 0,0.98013 v 0.67696 h 0.623563 q 0.167087,0 0.260105,-0.0448 0.16881,-0.0827 0.16881,-0.31695 0,-0.19809 -0.163643,-0.27216 -0.0913,-0.0413 -0.256659,-0.0431 z m 0.726916,-1.42111 q 0.466811,0.007 0.661459,0.27044 0.117133,0.16192 0.117133,0.38758 0,0.23254 -0.117133,0.37379 -0.06546,0.0792 -0.192926,0.14469 0.194648,0.0706 0.292833,0.22394 0.09991,0.1533 0.09991,0.37207 0,0.22565 -0.113688,0.40479 -0.07235,0.11886 -0.180868,0.19982 -0.122301,0.093 -0.289388,0.12747 -0.165364,0.0344 -0.360012,0.0344 h -1.150663 v -2.53904 z"
         style="font-style:normal;font-variant:normal;font-weight:bold;font-stretch:normal;font-size:3.52778px;font-family:Helvetica;-inkscape-font-specification:'Helvetica Bold';stroke-width:0.264583"
         id="path2973" />
      <path
         d="m 46.359783,317.31188 q 0,-0.6649 0.356567,-1.02491 0.310059,-0.31351 0.788928,-0.31351 0.640788,0 0.937066,0.4203 0.163642,0.23599 0.1757,0.4737 h -0.530545 q -0.05168,-0.18259 -0.132636,-0.2756 -0.144694,-0.16537 -0.428915,-0.16537 -0.289388,0 -0.456475,0.23427 -0.167087,0.23254 -0.167087,0.65973 0,0.4272 0.1757,0.64079 0.177422,0.21188 0.449585,0.21188 0.279053,0 0.425469,-0.18259 0.08096,-0.0982 0.134359,-0.29456 h 0.525378 q -0.0689,0.41513 -0.353123,0.67524 -0.282498,0.2601 -0.725193,0.2601 -0.54777,0 -0.861274,-0.3514 -0.313504,-0.35312 -0.313504,-0.96807 z m 1.129992,-1.3677 z"
         style="font-style:normal;font-variant:normal;font-weight:bold;font-stretch:normal;font-size:3.52778px;font-family:Helvetica;-inkscape-font-specification:'Helvetica Bold';stroke-width:0.264583"
         id="path2975" />
      <path
         d="m 49.028011,316.02169 h 0.521933 v 1.04559 l 0.98013,-1.04559 h 0.685574 l -1.040419,1.04559 1.093818,1.49345 h -0.682129 l -0.78376,-1.10932 -0.253214,0.2601 v 0.84922 h -0.521933 z"
         style="font-style:normal;font-variant:normal;font-weight:bold;font-stretch:normal;font-size:3.52778px;font-family:Helvetica;-inkscape-font-specification:'Helvetica Bold';stroke-width:0.264583"
         id="path2977" />
    </g>
    <g
       aria-label="BIN/DEC"
       id="text2927"
       style="font-style:normal;font-variant:normal;font-weight:bold;font-stretch:normal;font-size:3.52778px;line-height:1.25;font-family:Helvetica;-inkscape-font-specification:'Helvetica Bold';stroke-width:0.264583"
       transform="translate(66.499816,-79.083516)">
      <path
         d="m 54.573108,316.46267 v 0.55982 h 0.623563 q 0.167087,0 0.27044,-0.062 0.105076,-0.0637 0.105076,-0.22393 0,-0.17742 -0.137804,-0.23427 -0.118856,-0.0396 -0.303169,-0.0396 z m 0,0.98013 v 0.67696 h 0.623563 q 0.167087,0 0.260105,-0.0448 0.16881,-0.0827 0.16881,-0.31695 0,-0.19809 -0.163642,-0.27216 -0.0913,-0.0413 -0.25666,-0.0431 z m 0.726916,-1.42111 q 0.466811,0.007 0.661459,0.27044 0.117133,0.16192 0.117133,0.38758 0,0.23254 -0.117133,0.37379 -0.06546,0.0792 -0.192926,0.14469 0.194648,0.0706 0.292834,0.22394 0.09991,0.1533 0.09991,0.37207 0,0.22565 -0.113688,0.40479 -0.07235,0.11886 -0.180867,0.19982 -0.122301,0.093 -0.289389,0.12747 -0.165364,0.0344 -0.360012,0.0344 h -1.150663 v -2.53904 z"
         style="font-style:normal;font-variant:normal;font-weight:bold;font-stretch:normal;font-size:3.52778px;font-family:Helvetica;-inkscape-font-specification:'Helvetica Bold';stroke-width:0.264583"
         id="path2980" />
      <path
         d="m 57.093197,318.56073 h -0.5271 v -2.53904 h 0.5271 z m -0.26355,-2.58899 z"
         style="font-style:normal;font-variant:normal;font-weight:bold;font-stretch:normal;font-size:3.52778px;font-family:Helvetica;-inkscape-font-specification:'Helvetica Bold';stroke-width:0.264583"
         id="path2982" />
      <path
         d="m 57.577234,316.02169 h 0.556383 l 1.011136,1.77251 v -1.77251 h 0.494372 v 2.53904 h -0.530546 l -1.036974,-1.80351 v 1.80351 h -0.494371 z m 1.050754,-0.005 z"
         style="font-style:normal;font-variant:normal;font-weight:bold;font-stretch:normal;font-size:3.52778px;font-family:Helvetica;-inkscape-font-specification:'Helvetica Bold';stroke-width:0.264583"
         id="path2984" />
      <path
         d="m 60.657151,315.94418 h 0.408244 l -0.987021,2.61655 h -0.404799 z"
         style="font-style:normal;font-variant:normal;font-weight:bold;font-stretch:normal;font-size:3.52778px;font-family:Helvetica;-inkscape-font-specification:'Helvetica Bold';stroke-width:0.264583"
         id="path2986" />
      <path
         d="m 61.628668,316.46267 v 1.65709 h 0.489204 q 0.375516,0 0.523655,-0.37035 0.08096,-0.20326 0.08096,-0.48404 0,-0.38757 -0.122301,-0.59428 -0.120578,-0.20842 -0.482314,-0.20842 z m 0.578777,-0.44098 q 0.235989,0.003 0.392741,0.0551 0.266995,0.0879 0.43236,0.32212 0.132636,0.18948 0.180867,0.40997 0.04823,0.22048 0.04823,0.4203 0,0.50643 -0.203261,0.85783 -0.275608,0.4737 -0.850939,0.4737 h -1.093819 v -2.53904 z"
         style="font-style:normal;font-variant:normal;font-weight:bold;font-stretch:normal;font-size:3.52778px;font-family:Helvetica;-inkscape-font-specification:'Helvetica Bold';stroke-width:0.264583"
         id="path2988" />
      <path
         d="m 65.540576,316.47128 h -1.343588 v 0.53916 h 1.233345 v 0.44097 h -1.233345 v 0.65284 h 1.4056 v 0.45648 h -1.924087 v -2.53904 h 1.862075 z"
         style="font-style:normal;font-variant:normal;font-weight:bold;font-stretch:normal;font-size:3.52778px;font-family:Helvetica;-inkscape-font-specification:'Helvetica Bold';stroke-width:0.264583"
         id="path2990" />
      <path
         d="m 65.909202,317.31188 q 0,-0.6649 0.356568,-1.02491 0.310059,-0.31351 0.788927,-0.31351 0.640788,0 0.937067,0.4203 0.163642,0.23599 0.1757,0.4737 h -0.530545 q -0.05168,-0.18259 -0.132637,-0.2756 -0.144694,-0.16537 -0.428914,-0.16537 -0.289388,0 -0.456476,0.23427 -0.167087,0.23254 -0.167087,0.65973 0,0.4272 0.1757,0.64079 0.177423,0.21188 0.449585,0.21188 0.279053,0 0.42547,-0.18259 0.08096,-0.0982 0.134359,-0.29456 h 0.525377 q -0.0689,0.41513 -0.353122,0.67524 -0.282498,0.2601 -0.725194,0.2601 -0.54777,0 -0.861274,-0.3514 -0.313504,-0.35312 -0.313504,-0.96807 z m 1.129992,-1.3677 z"
         style="font-style:normal;font-variant:normal;font-weight:bold;font-stretch:normal;font-size:3.52778px;font-family:Helvetica;-inkscape-font-specification:'Helvetica Bold';stroke-width:0.264583"
         id="path2992" />
    </g>
    <g
       aria-label="PAUSE"
       id="text2931"
       style="font-style:normal;font-variant:normal;font-weight:bold;font-stretch:normal;font-size:3.52778px;line-height:1.25;font-family:Helvetica;-inkscape-font-specification:'Helvetica Bold';stroke-width:0.264583"
       transform="translate(66.499816,-79.083516)">
      <path
         d="m 74.824463,316.82957 q 0,-0.19809 -0.105075,-0.2825 -0.103353,-0.0844 -0.291111,-0.0844 h -0.494372 v 0.74758 h 0.494372 q 0.187758,0 0.291111,-0.0913 0.105075,-0.0913 0.105075,-0.28939 z m 0.525378,-0.003 q 0,0.44959 -0.227377,0.63562 -0.227376,0.18604 -0.649401,0.18604 h -0.539158 v 0.91295 h -0.5271 v -2.53904 h 1.105877 q 0.382406,0 0.609782,0.19637 0.227377,0.19637 0.227377,0.60806 z"
         style="font-style:normal;font-variant:normal;font-weight:bold;font-stretch:normal;font-size:3.52778px;font-family:Helvetica;-inkscape-font-specification:'Helvetica Bold';stroke-width:0.264583"
         id="path2995" />
      <path
         d="m 76.184415,317.60127 h 0.644234 L 76.5117,316.60219 Z m 0.03273,-1.57958 h 0.599447 l 0.89917,2.53904 H 77.14043 l -0.163642,-0.52193 h -0.935344 l -0.1757,0.52193 h -0.554661 z m 0.296278,0 z"
         style="font-style:normal;font-variant:normal;font-weight:bold;font-stretch:normal;font-size:3.52778px;font-family:Helvetica;-inkscape-font-specification:'Helvetica Bold';stroke-width:0.264583"
         id="path2997" />
      <path
         d="m 78.038739,316.02169 h 0.539158 v 1.56063 q 0,0.26183 0.06201,0.38241 0.09646,0.21359 0.420302,0.21359 0.322116,0 0.418579,-0.21359 0.06201,-0.12058 0.06201,-0.38241 v -1.56063 h 0.539157 v 1.56063 q 0,0.4048 -0.125746,0.63046 -0.234266,0.41341 -0.894002,0.41341 -0.659737,0 -0.895726,-0.41341 -0.125746,-0.22566 -0.125746,-0.63046 z m 1.021472,0 z"
         style="font-style:normal;font-variant:normal;font-weight:bold;font-stretch:normal;font-size:3.52778px;font-family:Helvetica;-inkscape-font-specification:'Helvetica Bold';stroke-width:0.264583"
         id="path2999" />
      <path
         d="m 80.97224,317.77697 q 0.02412,0.17398 0.09474,0.26011 0.129191,0.15675 0.442695,0.15675 0.187758,0 0.304892,-0.0413 0.222208,-0.0792 0.222208,-0.29456 0,-0.12575 -0.110243,-0.19465 -0.110243,-0.0672 -0.346232,-0.11885 l -0.268718,-0.0603 q -0.396186,-0.0896 -0.54777,-0.19465 -0.25666,-0.1757 -0.25666,-0.54949 0,-0.34107 0.248047,-0.56672 0.248047,-0.22566 0.728638,-0.22566 0.401354,0 0.683852,0.2136 0.284221,0.21187 0.298001,0.61667 h -0.509874 q -0.01378,-0.2291 -0.199816,-0.32556 -0.124024,-0.0637 -0.308336,-0.0637 -0.204984,0 -0.327285,0.0827 -0.122301,0.0827 -0.122301,0.23082 0,0.13608 0.120579,0.20326 0.07751,0.0448 0.330729,0.10508 l 0.437528,0.10507 q 0.287665,0.0689 0.434082,0.18431 0.227376,0.17915 0.227376,0.51849 0,0.34796 -0.266995,0.57878 -0.265272,0.2291 -0.751031,0.2291 -0.496094,0 -0.780315,-0.22566 -0.28422,-0.22737 -0.28422,-0.62356 z m 0.515042,-1.83279 z"
         style="font-style:normal;font-variant:normal;font-weight:bold;font-stretch:normal;font-size:3.52778px;font-family:Helvetica;-inkscape-font-specification:'Helvetica Bold';stroke-width:0.264583"
         id="path3001" />
      <path
         d="m 84.822136,316.47128 h -1.343588 v 0.53916 h 1.233345 v 0.44097 h -1.233345 v 0.65284 h 1.4056 v 0.45648 h -1.924087 v -2.53904 h 1.862075 z"
         style="font-style:normal;font-variant:normal;font-weight:bold;font-stretch:normal;font-size:3.52778px;font-family:Helvetica;-inkscape-font-specification:'Helvetica Bold';stroke-width:0.264583"
         id="path3003" />
    </g>
    <g
       aria-label="RESET"
       id="text2935"
       style="font-style:normal;font-variant:normal;font-weight:bold;font-stretch:normal;font-size:3.52778px;line-height:1.25;font-family:Helvetica;-inkscape-font-specification:'Helvetica Bold';stroke-width:0.264583"
       transform="translate(66.499816,-79.083516)">
      <path
         d="m 91.966613,316.46267 v 0.68212 h 0.60117 q 0.179145,0 0.268718,-0.0413 0.158474,-0.0723 0.158474,-0.28594 0,-0.23082 -0.153307,-0.31006 -0.08613,-0.0448 -0.258382,-0.0448 z m 0.726916,-0.44098 q 0.266995,0.005 0.409967,0.0655 0.144694,0.0603 0.244602,0.17742 0.08268,0.0965 0.130913,0.2136 0.04823,0.11713 0.04823,0.26699 0,0.18087 -0.0913,0.35657 -0.0913,0.17398 -0.301446,0.24633 0.1757,0.0706 0.248047,0.20153 0.07407,0.12919 0.07407,0.39619 v 0.17053 q 0,0.17398 0.01378,0.23599 0.02067,0.0982 0.09646,0.1447 v 0.0637 h -0.583944 q -0.02411,-0.0844 -0.03445,-0.13608 -0.02067,-0.1068 -0.02239,-0.21877 l -0.0034,-0.23598 q -0.0034,-0.24288 -0.08957,-0.32384 -0.08441,-0.081 -0.318672,-0.081 h -0.547771 v 0.99563 h -0.518487 v -2.53904 z"
         style="font-style:normal;font-variant:normal;font-weight:bold;font-stretch:normal;font-size:3.52778px;font-family:Helvetica;-inkscape-font-specification:'Helvetica Bold';stroke-width:0.264583"
         id="path3006" />
      <path
         d="m 95.863019,316.47128 h -1.343588 v 0.53916 h 1.233345 v 0.44097 h -1.233345 v 0.65284 h 1.4056 v 0.45648 h -1.924087 v -2.53904 h 1.862075 z"
         style="font-style:normal;font-variant:normal;font-weight:bold;font-stretch:normal;font-size:3.52778px;font-family:Helvetica;-inkscape-font-specification:'Helvetica Bold';stroke-width:0.264583"
         id="path3008" />
      <path
         d="m 96.726016,317.77697 q 0.02411,0.17398 0.09474,0.26011 0.129191,0.15675 0.442695,0.15675 0.187758,0 0.304891,-0.0413 0.222209,-0.0792 0.222209,-0.29456 0,-0.12575 -0.110243,-0.19465 -0.110243,-0.0672 -0.346233,-0.11885 l -0.268717,-0.0603 q -0.396186,-0.0896 -0.547771,-0.19465 -0.256659,-0.1757 -0.256659,-0.54949 0,-0.34107 0.248047,-0.56672 0.248047,-0.22566 0.728638,-0.22566 0.401354,0 0.683852,0.2136 0.28422,0.21187 0.298001,0.61667 h -0.509875 q -0.01378,-0.2291 -0.199816,-0.32556 -0.124023,-0.0637 -0.308336,-0.0637 -0.204983,0 -0.327284,0.0827 -0.122301,0.0827 -0.122301,0.23082 0,0.13608 0.120578,0.20326 0.07751,0.0448 0.33073,0.10508 l 0.437527,0.10507 q 0.287666,0.0689 0.434082,0.18431 0.227377,0.17915 0.227377,0.51849 0,0.34796 -0.266995,0.57878 -0.265273,0.2291 -0.751031,0.2291 -0.496095,0 -0.780315,-0.22566 -0.284221,-0.22737 -0.284221,-0.62356 z m 0.515042,-1.83279 z"
         style="font-style:normal;font-variant:normal;font-weight:bold;font-stretch:normal;font-size:3.52778px;font-family:Helvetica;-inkscape-font-specification:'Helvetica Bold';stroke-width:0.264583"
         id="path3010" />
      <path
         d="m 100.57591,316.47128 h -1.343586 v 0.53916 h 1.233346 v 0.44097 h -1.233346 v 0.65284 h 1.405596 v 0.45648 h -1.924083 v -2.53904 h 1.862073 z"
         style="font-style:normal;font-variant:normal;font-weight:bold;font-stretch:normal;font-size:3.52778px;font-family:Helvetica;-inkscape-font-specification:'Helvetica Bold';stroke-width:0.264583"
         id="path3012" />
      <path
         d="m 102.89963,316.02169 v 0.44959 h -0.75964 v 2.08945 H 101.606 v -2.08945 h -0.76309 v -0.44959 z"
         style="font-style:normal;font-variant:normal;font-weight:bold;font-stretch:normal;font-size:3.52778px;font-family:Helvetica;-inkscape-font-specification:'Helvetica Bold';stroke-width:0.264583"
         id="path3014" />
    </g>
    <g
       aria-label="POWER"
       id="text2939"
       style="font-style:normal;font-variant:normal;font-weight:bold;font-stretch:normal;font-size:3.52778px;line-height:1.25;font-family:Helvetica;-inkscape-font-specification:'Helvetica Bold';stroke-width:0.264583"
       transform="translate(66.499816,-79.083516)">
      <path
         d="m 1.9985682,316.82957 q 0,-0.19809 -0.1050755,-0.2825 -0.103353,-0.0844 -0.2911108,-0.0844 H 1.1080104 v 0.74758 h 0.4943715 q 0.1877578,0 0.2911108,-0.0913 0.1050755,-0.0913 0.1050755,-0.28939 z m 0.5253774,-0.003 q 0,0.44959 -0.2273765,0.63562 -0.2273764,0.18604 -0.6494009,0.18604 H 1.1080104 v 0.91295 H 0.58091045 v -2.53904 H 1.6867868 q 0.3824059,0 0.6097823,0.19637 0.2273765,0.19637 0.2273765,0.60806 z"
         style="font-style:normal;font-variant:normal;font-weight:bold;font-stretch:normal;font-size:3.52778px;font-family:Helvetica;-inkscape-font-specification:'Helvetica Bold';stroke-width:0.264583"
         id="path2954" />
      <path
         d="m 4.0484012,318.18177 q 0.3152264,0 0.4995392,-0.23254 0.1860352,-0.23255 0.1860352,-0.66146 0,-0.4272 -0.1860352,-0.65974 -0.1843128,-0.23427 -0.4995392,-0.23427 -0.3152264,0 -0.5029843,0.23255 -0.1877578,0.23254 -0.1877578,0.66146 0,0.42891 0.1877578,0.66146 0.1877579,0.23254 0.5029843,0.23254 z m 1.2161195,-0.894 q 0,0.68385 -0.3841284,1.04731 -0.2876657,0.29627 -0.8319911,0.29627 -0.5443254,0 -0.8319911,-0.29627 -0.3858509,-0.36346 -0.3858509,-1.04731 0,-0.69764 0.3858509,-1.04731 0.2876657,-0.29628 0.8319911,-0.29628 0.5443254,0 0.8319911,0.29628 0.3841284,0.34967 0.3841284,1.04731 z m -1.2161195,-1.34359 z"
         style="font-style:normal;font-variant:normal;font-weight:bold;font-stretch:normal;font-size:3.52778px;font-family:Helvetica;-inkscape-font-specification:'Helvetica Bold';stroke-width:0.264583"
         id="path2956" />
      <path
         d="m 6.0138293,316.02169 0.335897,1.45383 0.072347,0.4048 0.07407,-0.39618 0.2859431,-1.46245 h 0.5598284 l 0.301446,1.45383 0.077515,0.4048 0.077515,-0.38929 0.3393422,-1.46934 H 8.6768908 L 7.962033,318.56073 H 7.4556027 l -0.3066137,-1.48484 -0.089573,-0.49092 -0.089573,0.49092 -0.3066137,1.48484 h -0.492648 l -0.7200255,-2.53904 z"
         style="font-style:normal;font-variant:normal;font-weight:bold;font-stretch:normal;font-size:3.52778px;font-family:Helvetica;-inkscape-font-specification:'Helvetica Bold';stroke-width:0.264583"
         id="path2958" />
      <path
         d="M 10.87314,316.47128 H 9.5295519 v 0.53916 h 1.2333451 v 0.44097 H 9.5295519 v 0.65284 h 1.4056001 v 0.45648 H 9.0110647 v -2.53904 H 10.87314 Z"
         style="font-style:normal;font-variant:normal;font-weight:bold;font-stretch:normal;font-size:3.52778px;font-family:Helvetica;-inkscape-font-specification:'Helvetica Bold';stroke-width:0.264583"
         id="path2960" />
      <path
         d="m 11.882553,316.46267 v 0.68212 h 0.60117 q 0.179145,0 0.268717,-0.0413 0.158475,-0.0723 0.158475,-0.28594 0,-0.23082 -0.153307,-0.31006 -0.08613,-0.0448 -0.258382,-0.0448 z m 0.726916,-0.44098 q 0.266995,0.005 0.409966,0.0655 0.144694,0.0603 0.244602,0.17742 0.08268,0.0965 0.130914,0.2136 0.04823,0.11713 0.04823,0.26699 0,0.18087 -0.0913,0.35657 -0.09129,0.17398 -0.301446,0.24633 0.1757,0.0706 0.248047,0.20153 0.07407,0.12919 0.07407,0.39619 v 0.17053 q 0,0.17398 0.01378,0.23599 0.02067,0.0982 0.09646,0.1447 v 0.0637 h -0.583944 q -0.02412,-0.0844 -0.03445,-0.13608 -0.02067,-0.1068 -0.02239,-0.21877 l -0.0034,-0.23598 q -0.0034,-0.24288 -0.08957,-0.32384 -0.08441,-0.081 -0.318671,-0.081 h -0.547771 v 0.99563 h -0.518487 v -2.53904 z"
         style="font-style:normal;font-variant:normal;font-weight:bold;font-stretch:normal;font-size:3.52778px;font-family:Helvetica;-inkscape-font-specification:'Helvetica Bold';stroke-width:0.264583"
         id="path2962" />
    </g>
    <g
       inkscape:label="Layer 1"
       id="layer1-3"
       transform="translate(-1.2610356e-4,-99.999844)">
      <text
         xml:space="preserve"
         style="font-size:6.35px;line-height:1.25;font-family:Arial;-inkscape-font-specification:Arial;stroke-width:0.264583"
         x="25.028761"
         y="242.20216"
         id="text2665-9"><tspan
           sodipodi:role="line"
           id="tspan2663-0"
           x="25.028761"
           y="242.20216"
           style="font-size:6.35px;stroke-width:0.264583" /></text>
      <text
         xml:space="preserve"
         style="font-size:6.35px;line-height:1.25;font-family:Arial;-inkscape-font-specification:Arial;stroke-width:0.264583"
         x="91.578583"
         y="63.068691"
         id="text4892"><tspan
           sodipodi:role="line"
           id="tspan4890"
           x="91.578583"
           y="63.068691"
           style="font-size:6.35px;stroke-width:0.264583" /></text>
      <path
         id="path4894"
         style="fill:none;fill-opacity:0.717742;stroke:#ff0000;stroke-width:0.377953;stroke-linecap:round;stroke-linejoin:round;stroke-miterlimit:4;stroke-dasharray:none"
         d="M 132.47266,857.76172 C 59.413939,857.76183 0.18849313,916.98815 0.18945312,990.04688 0.18959312,1063.1047 59.414729,1122.3301 132.47266,1122.3301 h 742.67578 c 10.46933,0 18.89844,-8.4291 18.89844,-18.8985 V 876.66016 c 0,-10.46922 -8.42911,-18.89844 -18.89844,-18.89844 z m 94.11132,12.85156 c 3.33952,1.9e-4 6.04667,2.70736 6.04688,6.04688 -2.1e-4,3.33951 -2.70736,6.04668 -6.04688,6.04687 -3.34027,8.7e-4 -6.04862,-2.7066 -6.04882,-6.04687 2e-4,-3.34027 2.70855,-6.04775 6.04882,-6.04688 z m 566.92774,0 c 3.33951,2.3e-4 6.04665,2.70736 6.04687,6.04688 -2.2e-4,3.33951 -2.70736,6.04664 -6.04687,6.04687 -3.33952,-1.9e-4 -6.04665,-2.70736 -6.04688,-6.04687 2.3e-4,-3.33952 2.70736,-6.04669 6.04688,-6.04688 z m -527.01758,15.30664 a 6.0472441,6.0472441 0 0 1 6.04688,6.04883 6.0472441,6.0472441 0 0 1 -6.04688,6.04687 6.0472441,6.0472441 0 0 1 -6.04687,-6.04687 6.0472441,6.0472441 0 0 1 6.04687,-6.04883 z m 498.89648,0 a 6.0472441,6.0472441 0 0 1 6.04883,6.04883 6.0472441,6.0472441 0 0 1 -6.04883,6.04687 6.0472441,6.0472441 0 0 1 -6.04687,-6.04687 6.0472441,6.0472441 0 0 1 6.04687,-6.04883 z M 266.49414,1082.457 a 6.0472441,6.0472441 0 0 1 6.04688,6.0469 6.0472441,6.0472441 0 0 1 -6.04688,6.0469 6.0472441,6.0472441 0 0 1 -6.04687,-6.0469 6.0472441,6.0472441 0 0 1 6.04687,-6.0469 z m 498.89648,0 a 6.0472441,6.0472441 0 0 1 6.04883,6.0469 6.0472441,6.0472441 0 0 1 -6.04883,6.0469 6.0472441,6.0472441 0 0 1 -6.04687,-6.0469 6.0472441,6.0472441 0 0 1 6.04687,-6.0469 z m -538.80664,14.9278 c 3.33953,2e-4 6.04669,2.7073 6.04688,6.0468 -2.1e-4,3.3396 -2.70736,6.0467 -6.04688,6.0469 -3.34027,9e-4 -6.04862,-2.7066 -6.04882,-6.0469 1.9e-4,-3.3402 2.70854,-6.0477 6.04882,-6.0468 z m 566.92774,0 c 3.33951,2e-4 6.04668,2.7073 6.04687,6.0468 -2.2e-4,3.3396 -2.70736,6.0467 -6.04687,6.0469 -3.33952,-2e-4 -6.04665,-2.7073 -6.04688,-6.0469 1.9e-4,-3.3395 2.70733,-6.0466 6.04688,-6.0468 z"
         transform="scale(0.26458333)" />
    </g>
  </g>
</svg>
